%TF.GenerationSoftware,KiCad,Pcbnew,(5.0.0-3-g0214c9d)*%
%TF.CreationDate,2018-12-11T01:20:51+01:00*%
%TF.ProjectId,AmiExtFDD,416D694578744644442E6B696361645F,rev?*%
%TF.SameCoordinates,Original*%
%TF.FileFunction,Legend,Top*%
%TF.FilePolarity,Positive*%
%FSLAX46Y46*%
G04 Gerber Fmt 4.6, Leading zero omitted, Abs format (unit mm)*
G04 Created by KiCad (PCBNEW (5.0.0-3-g0214c9d)) date 2018 December 11, Tuesday 01:20:51*
%MOMM*%
%LPD*%
G01*
G04 APERTURE LIST*
%ADD10C,0.150000*%
%ADD11C,0.120000*%
G04 APERTURE END LIST*
D10*
X95000000Y-101075000D02*
X93000000Y-101075000D01*
X93000000Y-98925000D02*
X95000000Y-98925000D01*
X93000000Y-104925000D02*
X95000000Y-104925000D01*
X95000000Y-107075000D02*
X93000000Y-107075000D01*
X95000000Y-95075000D02*
X93000000Y-95075000D01*
X93000000Y-92925000D02*
X95000000Y-92925000D01*
X76000000Y-70075000D02*
X74000000Y-70075000D01*
X74000000Y-67925000D02*
X76000000Y-67925000D01*
X74000000Y-62925000D02*
X76000000Y-62925000D01*
X76000000Y-65075000D02*
X74000000Y-65075000D01*
X80475000Y-58000000D02*
X80475000Y-56000000D01*
X77525000Y-56000000D02*
X77525000Y-58000000D01*
X71525000Y-56000000D02*
X71525000Y-58000000D01*
X74475000Y-58000000D02*
X74475000Y-56000000D01*
X68200000Y-90070000D02*
X59260000Y-90070000D01*
X59260000Y-90070000D02*
X59260000Y-57070000D01*
X59260000Y-57070000D02*
X68200000Y-57070000D01*
X68200000Y-57070000D02*
X68200000Y-90070000D01*
X68200000Y-75795000D02*
X66900000Y-75795000D01*
X66900000Y-75795000D02*
X66900000Y-88870000D01*
X66900000Y-88870000D02*
X60560000Y-88870000D01*
X60560000Y-88870000D02*
X60560000Y-58270000D01*
X60560000Y-58270000D02*
X66900000Y-58270000D01*
X66900000Y-58270000D02*
X66900000Y-71345000D01*
X66900000Y-71345000D02*
X68200000Y-71345000D01*
X59260000Y-73820000D02*
X59060000Y-73820000D01*
X59060000Y-73820000D02*
X59060000Y-73320000D01*
X59060000Y-73320000D02*
X59260000Y-73320000D01*
X59160000Y-73820000D02*
X59160000Y-73320000D01*
X59260000Y-59990000D02*
X59060000Y-59990000D01*
X59060000Y-59990000D02*
X59060000Y-59490000D01*
X59060000Y-59490000D02*
X59260000Y-59490000D01*
X59160000Y-59990000D02*
X59160000Y-59490000D01*
X59260000Y-87650000D02*
X59060000Y-87650000D01*
X59060000Y-87650000D02*
X59060000Y-87150000D01*
X59060000Y-87150000D02*
X59260000Y-87150000D01*
X59160000Y-87650000D02*
X59160000Y-87150000D01*
X65600000Y-87200000D02*
X64400000Y-87200000D01*
X64400000Y-87200000D02*
X65000000Y-86600000D01*
X65000000Y-86600000D02*
X65600000Y-87200000D01*
X110200000Y-108070000D02*
X101260000Y-108070000D01*
X101260000Y-108070000D02*
X101260000Y-57290000D01*
X101260000Y-57290000D02*
X110200000Y-57290000D01*
X110200000Y-57290000D02*
X110200000Y-108070000D01*
X110200000Y-84905000D02*
X108900000Y-84905000D01*
X108900000Y-84905000D02*
X108900000Y-106870000D01*
X108900000Y-106870000D02*
X102560000Y-106870000D01*
X102560000Y-106870000D02*
X102560000Y-58490000D01*
X102560000Y-58490000D02*
X108900000Y-58490000D01*
X108900000Y-58490000D02*
X108900000Y-80455000D01*
X108900000Y-80455000D02*
X110200000Y-80455000D01*
X101260000Y-82930000D02*
X101060000Y-82930000D01*
X101060000Y-82930000D02*
X101060000Y-82430000D01*
X101060000Y-82430000D02*
X101260000Y-82430000D01*
X101160000Y-82930000D02*
X101160000Y-82430000D01*
X101260000Y-60210000D02*
X101060000Y-60210000D01*
X101060000Y-60210000D02*
X101060000Y-59710000D01*
X101060000Y-59710000D02*
X101260000Y-59710000D01*
X101160000Y-60210000D02*
X101160000Y-59710000D01*
X101260000Y-105650000D02*
X101060000Y-105650000D01*
X101060000Y-105650000D02*
X101060000Y-105150000D01*
X101060000Y-105150000D02*
X101260000Y-105150000D01*
X101160000Y-105650000D02*
X101160000Y-105150000D01*
X107600000Y-105200000D02*
X106400000Y-105200000D01*
X106400000Y-105200000D02*
X107000000Y-104600000D01*
X107000000Y-104600000D02*
X107600000Y-105200000D01*
X100980000Y-122370000D02*
X106980000Y-122370000D01*
X106980000Y-122370000D02*
X106980000Y-112010000D01*
X106980000Y-112010000D02*
X100980000Y-112010000D01*
X100980000Y-112010000D02*
X100980000Y-122370000D01*
X106980000Y-121000000D02*
X105980000Y-121000000D01*
X105980000Y-121000000D02*
X105980000Y-113380000D01*
X105980000Y-113380000D02*
X106980000Y-113380000D01*
X105980000Y-121000000D02*
X105550000Y-120750000D01*
X105550000Y-120750000D02*
X105550000Y-113630000D01*
X105550000Y-113630000D02*
X105980000Y-113380000D01*
X106980000Y-120750000D02*
X105980000Y-120750000D01*
X106980000Y-113630000D02*
X105980000Y-113630000D01*
X100980000Y-121800000D02*
X101600000Y-121800000D01*
X101600000Y-121800000D02*
X101600000Y-120200000D01*
X101600000Y-120200000D02*
X100980000Y-120200000D01*
X100980000Y-119260000D02*
X101600000Y-119260000D01*
X101600000Y-119260000D02*
X101600000Y-117660000D01*
X101600000Y-117660000D02*
X100980000Y-117660000D01*
X100980000Y-116720000D02*
X101600000Y-116720000D01*
X101600000Y-116720000D02*
X101600000Y-115120000D01*
X101600000Y-115120000D02*
X100980000Y-115120000D01*
X100980000Y-114180000D02*
X101600000Y-114180000D01*
X101600000Y-114180000D02*
X101600000Y-112580000D01*
X101600000Y-112580000D02*
X100980000Y-112580000D01*
D11*
X86270000Y-56390000D02*
X91470000Y-56390000D01*
X91470000Y-56390000D02*
X91470000Y-53610000D01*
X91470000Y-53610000D02*
X86270000Y-53610000D01*
X86270000Y-53610000D02*
X86270000Y-56390000D01*
X85000000Y-56390000D02*
X83610000Y-56390000D01*
X83610000Y-56390000D02*
X83610000Y-55000000D01*
X83610000Y-63390000D02*
X83610000Y-62000000D01*
X85000000Y-63390000D02*
X83610000Y-63390000D01*
X86270000Y-60610000D02*
X86270000Y-63390000D01*
X91470000Y-60610000D02*
X86270000Y-60610000D01*
X91470000Y-63390000D02*
X91470000Y-60610000D01*
X86270000Y-63390000D02*
X91470000Y-63390000D01*
X86270000Y-70390000D02*
X91470000Y-70390000D01*
X91470000Y-70390000D02*
X91470000Y-67610000D01*
X91470000Y-67610000D02*
X86270000Y-67610000D01*
X86270000Y-67610000D02*
X86270000Y-70390000D01*
X85000000Y-70390000D02*
X83610000Y-70390000D01*
X83610000Y-70390000D02*
X83610000Y-69000000D01*
X86270000Y-82390000D02*
X91470000Y-82390000D01*
X91470000Y-82390000D02*
X91470000Y-77070000D01*
X91470000Y-77070000D02*
X83610000Y-77070000D01*
X83610000Y-77070000D02*
X83610000Y-79730000D01*
X83610000Y-79730000D02*
X86270000Y-79730000D01*
X86270000Y-79730000D02*
X86270000Y-82390000D01*
X85000000Y-82390000D02*
X83610000Y-82390000D01*
X83610000Y-82390000D02*
X83610000Y-81000000D01*
X83610000Y-89390000D02*
X83610000Y-88000000D01*
X85000000Y-89390000D02*
X83610000Y-89390000D01*
X86270000Y-86610000D02*
X86270000Y-89390000D01*
X91470000Y-86610000D02*
X86270000Y-86610000D01*
X91470000Y-89390000D02*
X91470000Y-86610000D01*
X86270000Y-89390000D02*
X91470000Y-89390000D01*
X69610000Y-97190000D02*
G75*
G02X69610000Y-99190000I0J-1000000D01*
G01*
X69610000Y-99190000D02*
X69610000Y-100960000D01*
X69610000Y-100960000D02*
X87630000Y-100960000D01*
X87630000Y-100960000D02*
X87630000Y-95420000D01*
X87630000Y-95420000D02*
X69610000Y-95420000D01*
X69610000Y-95420000D02*
X69610000Y-97190000D01*
X69610000Y-103390000D02*
X87630000Y-103390000D01*
X87630000Y-103390000D02*
X87630000Y-92990000D01*
X87630000Y-92990000D02*
X69610000Y-92990000D01*
X69610000Y-92990000D02*
X69610000Y-103390000D01*
X69610000Y-106990000D02*
X69610000Y-117390000D01*
X87630000Y-106990000D02*
X69610000Y-106990000D01*
X87630000Y-117390000D02*
X87630000Y-106990000D01*
X69610000Y-117390000D02*
X87630000Y-117390000D01*
X69610000Y-109420000D02*
X69610000Y-111190000D01*
X87630000Y-109420000D02*
X69610000Y-109420000D01*
X87630000Y-114960000D02*
X87630000Y-109420000D01*
X69610000Y-114960000D02*
X87630000Y-114960000D01*
X69610000Y-113190000D02*
X69610000Y-114960000D01*
X69610000Y-111190000D02*
G75*
G02X69610000Y-113190000I0J-1000000D01*
G01*
D10*
X61286000Y-54000000D02*
G75*
G03X61286000Y-54000000I-2286000J0D01*
G01*
X113286000Y-54000000D02*
G75*
G03X113286000Y-54000000I-2286000J0D01*
G01*
X113286000Y-126000000D02*
G75*
G03X113286000Y-126000000I-2286000J0D01*
G01*
X61286000Y-126000000D02*
G75*
G03X61286000Y-126000000I-2286000J0D01*
G01*
X93833333Y-98152380D02*
X93500000Y-97676190D01*
X93261904Y-98152380D02*
X93261904Y-97152380D01*
X93642857Y-97152380D01*
X93738095Y-97200000D01*
X93785714Y-97247619D01*
X93833333Y-97342857D01*
X93833333Y-97485714D01*
X93785714Y-97580952D01*
X93738095Y-97628571D01*
X93642857Y-97676190D01*
X93261904Y-97676190D01*
X94738095Y-97152380D02*
X94261904Y-97152380D01*
X94214285Y-97628571D01*
X94261904Y-97580952D01*
X94357142Y-97533333D01*
X94595238Y-97533333D01*
X94690476Y-97580952D01*
X94738095Y-97628571D01*
X94785714Y-97723809D01*
X94785714Y-97961904D01*
X94738095Y-98057142D01*
X94690476Y-98104761D01*
X94595238Y-98152380D01*
X94357142Y-98152380D01*
X94261904Y-98104761D01*
X94214285Y-98057142D01*
X93833333Y-104152380D02*
X93500000Y-103676190D01*
X93261904Y-104152380D02*
X93261904Y-103152380D01*
X93642857Y-103152380D01*
X93738095Y-103200000D01*
X93785714Y-103247619D01*
X93833333Y-103342857D01*
X93833333Y-103485714D01*
X93785714Y-103580952D01*
X93738095Y-103628571D01*
X93642857Y-103676190D01*
X93261904Y-103676190D01*
X94690476Y-103485714D02*
X94690476Y-104152380D01*
X94452380Y-103104761D02*
X94214285Y-103819047D01*
X94833333Y-103819047D01*
X93833333Y-92152380D02*
X93500000Y-91676190D01*
X93261904Y-92152380D02*
X93261904Y-91152380D01*
X93642857Y-91152380D01*
X93738095Y-91200000D01*
X93785714Y-91247619D01*
X93833333Y-91342857D01*
X93833333Y-91485714D01*
X93785714Y-91580952D01*
X93738095Y-91628571D01*
X93642857Y-91676190D01*
X93261904Y-91676190D01*
X94166666Y-91152380D02*
X94785714Y-91152380D01*
X94452380Y-91533333D01*
X94595238Y-91533333D01*
X94690476Y-91580952D01*
X94738095Y-91628571D01*
X94785714Y-91723809D01*
X94785714Y-91961904D01*
X94738095Y-92057142D01*
X94690476Y-92104761D01*
X94595238Y-92152380D01*
X94309523Y-92152380D01*
X94214285Y-92104761D01*
X94166666Y-92057142D01*
X74833333Y-71752380D02*
X74500000Y-71276190D01*
X74261904Y-71752380D02*
X74261904Y-70752380D01*
X74642857Y-70752380D01*
X74738095Y-70800000D01*
X74785714Y-70847619D01*
X74833333Y-70942857D01*
X74833333Y-71085714D01*
X74785714Y-71180952D01*
X74738095Y-71228571D01*
X74642857Y-71276190D01*
X74261904Y-71276190D01*
X75214285Y-70847619D02*
X75261904Y-70800000D01*
X75357142Y-70752380D01*
X75595238Y-70752380D01*
X75690476Y-70800000D01*
X75738095Y-70847619D01*
X75785714Y-70942857D01*
X75785714Y-71038095D01*
X75738095Y-71180952D01*
X75166666Y-71752380D01*
X75785714Y-71752380D01*
X74833333Y-66752380D02*
X74500000Y-66276190D01*
X74261904Y-66752380D02*
X74261904Y-65752380D01*
X74642857Y-65752380D01*
X74738095Y-65800000D01*
X74785714Y-65847619D01*
X74833333Y-65942857D01*
X74833333Y-66085714D01*
X74785714Y-66180952D01*
X74738095Y-66228571D01*
X74642857Y-66276190D01*
X74261904Y-66276190D01*
X75785714Y-66752380D02*
X75214285Y-66752380D01*
X75500000Y-66752380D02*
X75500000Y-65752380D01*
X75404761Y-65895238D01*
X75309523Y-65990476D01*
X75214285Y-66038095D01*
X82057142Y-57166666D02*
X82104761Y-57214285D01*
X82152380Y-57357142D01*
X82152380Y-57452380D01*
X82104761Y-57595238D01*
X82009523Y-57690476D01*
X81914285Y-57738095D01*
X81723809Y-57785714D01*
X81580952Y-57785714D01*
X81390476Y-57738095D01*
X81295238Y-57690476D01*
X81200000Y-57595238D01*
X81152380Y-57452380D01*
X81152380Y-57357142D01*
X81200000Y-57214285D01*
X81247619Y-57166666D01*
X82152380Y-56214285D02*
X82152380Y-56785714D01*
X82152380Y-56500000D02*
X81152380Y-56500000D01*
X81295238Y-56595238D01*
X81390476Y-56690476D01*
X81438095Y-56785714D01*
X76057142Y-57166666D02*
X76104761Y-57214285D01*
X76152380Y-57357142D01*
X76152380Y-57452380D01*
X76104761Y-57595238D01*
X76009523Y-57690476D01*
X75914285Y-57738095D01*
X75723809Y-57785714D01*
X75580952Y-57785714D01*
X75390476Y-57738095D01*
X75295238Y-57690476D01*
X75200000Y-57595238D01*
X75152380Y-57452380D01*
X75152380Y-57357142D01*
X75200000Y-57214285D01*
X75247619Y-57166666D01*
X75247619Y-56785714D02*
X75200000Y-56738095D01*
X75152380Y-56642857D01*
X75152380Y-56404761D01*
X75200000Y-56309523D01*
X75247619Y-56261904D01*
X75342857Y-56214285D01*
X75438095Y-56214285D01*
X75580952Y-56261904D01*
X76152380Y-56833333D01*
X76152380Y-56214285D01*
X58357142Y-92000000D02*
X58404761Y-92047619D01*
X58452380Y-92190476D01*
X58452380Y-92285714D01*
X58404761Y-92428571D01*
X58309523Y-92523809D01*
X58214285Y-92571428D01*
X58023809Y-92619047D01*
X57880952Y-92619047D01*
X57690476Y-92571428D01*
X57595238Y-92523809D01*
X57500000Y-92428571D01*
X57452380Y-92285714D01*
X57452380Y-92190476D01*
X57500000Y-92047619D01*
X57547619Y-92000000D01*
X57452380Y-91380952D02*
X57452380Y-91190476D01*
X57500000Y-91095238D01*
X57595238Y-91000000D01*
X57785714Y-90952380D01*
X58119047Y-90952380D01*
X58309523Y-91000000D01*
X58404761Y-91095238D01*
X58452380Y-91190476D01*
X58452380Y-91380952D01*
X58404761Y-91476190D01*
X58309523Y-91571428D01*
X58119047Y-91619047D01*
X57785714Y-91619047D01*
X57595238Y-91571428D01*
X57500000Y-91476190D01*
X57452380Y-91380952D01*
X58452380Y-90523809D02*
X57452380Y-90523809D01*
X58452380Y-89952380D01*
X57452380Y-89952380D01*
X58071428Y-89476190D02*
X58071428Y-88714285D01*
X58166666Y-88285714D02*
X58166666Y-87809523D01*
X58452380Y-88380952D02*
X57452380Y-88047619D01*
X58452380Y-87714285D01*
X58452380Y-87380952D02*
X57452380Y-87380952D01*
X58166666Y-87047619D01*
X57452380Y-86714285D01*
X58452380Y-86714285D01*
X58452380Y-86238095D02*
X57452380Y-86238095D01*
X57500000Y-85238095D02*
X57452380Y-85333333D01*
X57452380Y-85476190D01*
X57500000Y-85619047D01*
X57595238Y-85714285D01*
X57690476Y-85761904D01*
X57880952Y-85809523D01*
X58023809Y-85809523D01*
X58214285Y-85761904D01*
X58309523Y-85714285D01*
X58404761Y-85619047D01*
X58452380Y-85476190D01*
X58452380Y-85380952D01*
X58404761Y-85238095D01*
X58357142Y-85190476D01*
X58023809Y-85190476D01*
X58023809Y-85380952D01*
X58166666Y-84809523D02*
X58166666Y-84333333D01*
X58452380Y-84904761D02*
X57452380Y-84571428D01*
X58452380Y-84238095D01*
X58452380Y-83380952D02*
X58452380Y-83952380D01*
X58452380Y-83666666D02*
X57452380Y-83666666D01*
X57595238Y-83761904D01*
X57690476Y-83857142D01*
X57738095Y-83952380D01*
X100357142Y-109261904D02*
X100404761Y-109309523D01*
X100452380Y-109452380D01*
X100452380Y-109547619D01*
X100404761Y-109690476D01*
X100309523Y-109785714D01*
X100214285Y-109833333D01*
X100023809Y-109880952D01*
X99880952Y-109880952D01*
X99690476Y-109833333D01*
X99595238Y-109785714D01*
X99500000Y-109690476D01*
X99452380Y-109547619D01*
X99452380Y-109452380D01*
X99500000Y-109309523D01*
X99547619Y-109261904D01*
X99452380Y-108642857D02*
X99452380Y-108452380D01*
X99500000Y-108357142D01*
X99595238Y-108261904D01*
X99785714Y-108214285D01*
X100119047Y-108214285D01*
X100309523Y-108261904D01*
X100404761Y-108357142D01*
X100452380Y-108452380D01*
X100452380Y-108642857D01*
X100404761Y-108738095D01*
X100309523Y-108833333D01*
X100119047Y-108880952D01*
X99785714Y-108880952D01*
X99595238Y-108833333D01*
X99500000Y-108738095D01*
X99452380Y-108642857D01*
X100452380Y-107785714D02*
X99452380Y-107785714D01*
X100452380Y-107214285D01*
X99452380Y-107214285D01*
X100071428Y-106738095D02*
X100071428Y-105976190D01*
X99928571Y-105166666D02*
X99928571Y-105500000D01*
X100452380Y-105500000D02*
X99452380Y-105500000D01*
X99452380Y-105023809D01*
X100452380Y-104642857D02*
X99452380Y-104642857D01*
X99452380Y-104404761D01*
X99500000Y-104261904D01*
X99595238Y-104166666D01*
X99690476Y-104119047D01*
X99880952Y-104071428D01*
X100023809Y-104071428D01*
X100214285Y-104119047D01*
X100309523Y-104166666D01*
X100404761Y-104261904D01*
X100452380Y-104404761D01*
X100452380Y-104642857D01*
X100452380Y-103642857D02*
X99452380Y-103642857D01*
X99452380Y-103404761D01*
X99500000Y-103261904D01*
X99595238Y-103166666D01*
X99690476Y-103119047D01*
X99880952Y-103071428D01*
X100023809Y-103071428D01*
X100214285Y-103119047D01*
X100309523Y-103166666D01*
X100404761Y-103261904D01*
X100452380Y-103404761D01*
X100452380Y-103642857D01*
X100452380Y-102119047D02*
X100452380Y-102690476D01*
X100452380Y-102404761D02*
X99452380Y-102404761D01*
X99595238Y-102500000D01*
X99690476Y-102595238D01*
X99738095Y-102690476D01*
X99857142Y-124380952D02*
X99904761Y-124428571D01*
X99952380Y-124571428D01*
X99952380Y-124666666D01*
X99904761Y-124809523D01*
X99809523Y-124904761D01*
X99714285Y-124952380D01*
X99523809Y-125000000D01*
X99380952Y-125000000D01*
X99190476Y-124952380D01*
X99095238Y-124904761D01*
X99000000Y-124809523D01*
X98952380Y-124666666D01*
X98952380Y-124571428D01*
X99000000Y-124428571D01*
X99047619Y-124380952D01*
X98952380Y-123761904D02*
X98952380Y-123571428D01*
X99000000Y-123476190D01*
X99095238Y-123380952D01*
X99285714Y-123333333D01*
X99619047Y-123333333D01*
X99809523Y-123380952D01*
X99904761Y-123476190D01*
X99952380Y-123571428D01*
X99952380Y-123761904D01*
X99904761Y-123857142D01*
X99809523Y-123952380D01*
X99619047Y-124000000D01*
X99285714Y-124000000D01*
X99095238Y-123952380D01*
X99000000Y-123857142D01*
X98952380Y-123761904D01*
X99952380Y-122904761D02*
X98952380Y-122904761D01*
X99952380Y-122333333D01*
X98952380Y-122333333D01*
X99571428Y-121857142D02*
X99571428Y-121095238D01*
X99952380Y-120619047D02*
X98952380Y-120619047D01*
X98952380Y-120238095D01*
X99000000Y-120142857D01*
X99047619Y-120095238D01*
X99142857Y-120047619D01*
X99285714Y-120047619D01*
X99380952Y-120095238D01*
X99428571Y-120142857D01*
X99476190Y-120238095D01*
X99476190Y-120619047D01*
X98952380Y-119428571D02*
X98952380Y-119238095D01*
X99000000Y-119142857D01*
X99095238Y-119047619D01*
X99285714Y-119000000D01*
X99619047Y-119000000D01*
X99809523Y-119047619D01*
X99904761Y-119142857D01*
X99952380Y-119238095D01*
X99952380Y-119428571D01*
X99904761Y-119523809D01*
X99809523Y-119619047D01*
X99619047Y-119666666D01*
X99285714Y-119666666D01*
X99095238Y-119619047D01*
X99000000Y-119523809D01*
X98952380Y-119428571D01*
X98952380Y-118666666D02*
X99952380Y-118428571D01*
X99238095Y-118238095D01*
X99952380Y-118047619D01*
X98952380Y-117809523D01*
X99428571Y-117428571D02*
X99428571Y-117095238D01*
X99952380Y-116952380D02*
X99952380Y-117428571D01*
X98952380Y-117428571D01*
X98952380Y-116952380D01*
X99952380Y-115952380D02*
X99476190Y-116285714D01*
X99952380Y-116523809D02*
X98952380Y-116523809D01*
X98952380Y-116142857D01*
X99000000Y-116047619D01*
X99047619Y-116000000D01*
X99142857Y-115952380D01*
X99285714Y-115952380D01*
X99380952Y-116000000D01*
X99428571Y-116047619D01*
X99476190Y-116142857D01*
X99476190Y-116523809D01*
X99952380Y-115000000D02*
X99952380Y-115571428D01*
X99952380Y-115285714D02*
X98952380Y-115285714D01*
X99095238Y-115380952D01*
X99190476Y-115476190D01*
X99238095Y-115571428D01*
X82062380Y-55333333D02*
X82776666Y-55333333D01*
X82919523Y-55380952D01*
X83014761Y-55476190D01*
X83062380Y-55619047D01*
X83062380Y-55714285D01*
X83062380Y-54333333D02*
X83062380Y-54904761D01*
X83062380Y-54619047D02*
X82062380Y-54619047D01*
X82205238Y-54714285D01*
X82300476Y-54809523D01*
X82348095Y-54904761D01*
X82062380Y-62333333D02*
X82776666Y-62333333D01*
X82919523Y-62380952D01*
X83014761Y-62476190D01*
X83062380Y-62619047D01*
X83062380Y-62714285D01*
X82157619Y-61904761D02*
X82110000Y-61857142D01*
X82062380Y-61761904D01*
X82062380Y-61523809D01*
X82110000Y-61428571D01*
X82157619Y-61380952D01*
X82252857Y-61333333D01*
X82348095Y-61333333D01*
X82490952Y-61380952D01*
X83062380Y-61952380D01*
X83062380Y-61333333D01*
X82062380Y-69333333D02*
X82776666Y-69333333D01*
X82919523Y-69380952D01*
X83014761Y-69476190D01*
X83062380Y-69619047D01*
X83062380Y-69714285D01*
X82062380Y-68952380D02*
X82062380Y-68333333D01*
X82443333Y-68666666D01*
X82443333Y-68523809D01*
X82490952Y-68428571D01*
X82538571Y-68380952D01*
X82633809Y-68333333D01*
X82871904Y-68333333D01*
X82967142Y-68380952D01*
X83014761Y-68428571D01*
X83062380Y-68523809D01*
X83062380Y-68809523D01*
X83014761Y-68904761D01*
X82967142Y-68952380D01*
X82062380Y-80063333D02*
X82776666Y-80063333D01*
X82919523Y-80110952D01*
X83014761Y-80206190D01*
X83062380Y-80349047D01*
X83062380Y-80444285D01*
X82395714Y-79158571D02*
X83062380Y-79158571D01*
X82014761Y-79396666D02*
X82729047Y-79634761D01*
X82729047Y-79015714D01*
X82062380Y-88333333D02*
X82776666Y-88333333D01*
X82919523Y-88380952D01*
X83014761Y-88476190D01*
X83062380Y-88619047D01*
X83062380Y-88714285D01*
X82062380Y-87380952D02*
X82062380Y-87857142D01*
X82538571Y-87904761D01*
X82490952Y-87857142D01*
X82443333Y-87761904D01*
X82443333Y-87523809D01*
X82490952Y-87428571D01*
X82538571Y-87380952D01*
X82633809Y-87333333D01*
X82871904Y-87333333D01*
X82967142Y-87380952D01*
X83014761Y-87428571D01*
X83062380Y-87523809D01*
X83062380Y-87761904D01*
X83014761Y-87857142D01*
X82967142Y-87904761D01*
X68062380Y-98951904D02*
X68871904Y-98951904D01*
X68967142Y-98904285D01*
X69014761Y-98856666D01*
X69062380Y-98761428D01*
X69062380Y-98570952D01*
X69014761Y-98475714D01*
X68967142Y-98428095D01*
X68871904Y-98380476D01*
X68062380Y-98380476D01*
X69062380Y-97380476D02*
X69062380Y-97951904D01*
X69062380Y-97666190D02*
X68062380Y-97666190D01*
X68205238Y-97761428D01*
X68300476Y-97856666D01*
X68348095Y-97951904D01*
X68062380Y-112951904D02*
X68871904Y-112951904D01*
X68967142Y-112904285D01*
X69014761Y-112856666D01*
X69062380Y-112761428D01*
X69062380Y-112570952D01*
X69014761Y-112475714D01*
X68967142Y-112428095D01*
X68871904Y-112380476D01*
X68062380Y-112380476D01*
X68157619Y-111951904D02*
X68110000Y-111904285D01*
X68062380Y-111809047D01*
X68062380Y-111570952D01*
X68110000Y-111475714D01*
X68157619Y-111428095D01*
X68252857Y-111380476D01*
X68348095Y-111380476D01*
X68490952Y-111428095D01*
X69062380Y-111999523D01*
X69062380Y-111380476D01*
X57952380Y-51404380D02*
X57619047Y-50928190D01*
X57380952Y-51404380D02*
X57380952Y-50404380D01*
X57761904Y-50404380D01*
X57857142Y-50452000D01*
X57904761Y-50499619D01*
X57952380Y-50594857D01*
X57952380Y-50737714D01*
X57904761Y-50832952D01*
X57857142Y-50880571D01*
X57761904Y-50928190D01*
X57380952Y-50928190D01*
X58380952Y-50880571D02*
X58714285Y-50880571D01*
X58857142Y-51404380D02*
X58380952Y-51404380D01*
X58380952Y-50404380D01*
X58857142Y-50404380D01*
X59619047Y-50880571D02*
X59285714Y-50880571D01*
X59285714Y-51404380D02*
X59285714Y-50404380D01*
X59761904Y-50404380D01*
X60571428Y-50737714D02*
X60571428Y-51404380D01*
X60333333Y-50356761D02*
X60095238Y-51071047D01*
X60714285Y-51071047D01*
X109952380Y-51404380D02*
X109619047Y-50928190D01*
X109380952Y-51404380D02*
X109380952Y-50404380D01*
X109761904Y-50404380D01*
X109857142Y-50452000D01*
X109904761Y-50499619D01*
X109952380Y-50594857D01*
X109952380Y-50737714D01*
X109904761Y-50832952D01*
X109857142Y-50880571D01*
X109761904Y-50928190D01*
X109380952Y-50928190D01*
X110380952Y-50880571D02*
X110714285Y-50880571D01*
X110857142Y-51404380D02*
X110380952Y-51404380D01*
X110380952Y-50404380D01*
X110857142Y-50404380D01*
X111619047Y-50880571D02*
X111285714Y-50880571D01*
X111285714Y-51404380D02*
X111285714Y-50404380D01*
X111761904Y-50404380D01*
X112047619Y-50404380D02*
X112666666Y-50404380D01*
X112333333Y-50785333D01*
X112476190Y-50785333D01*
X112571428Y-50832952D01*
X112619047Y-50880571D01*
X112666666Y-50975809D01*
X112666666Y-51213904D01*
X112619047Y-51309142D01*
X112571428Y-51356761D01*
X112476190Y-51404380D01*
X112190476Y-51404380D01*
X112095238Y-51356761D01*
X112047619Y-51309142D01*
X109952380Y-123404380D02*
X109619047Y-122928190D01*
X109380952Y-123404380D02*
X109380952Y-122404380D01*
X109761904Y-122404380D01*
X109857142Y-122452000D01*
X109904761Y-122499619D01*
X109952380Y-122594857D01*
X109952380Y-122737714D01*
X109904761Y-122832952D01*
X109857142Y-122880571D01*
X109761904Y-122928190D01*
X109380952Y-122928190D01*
X110380952Y-122880571D02*
X110714285Y-122880571D01*
X110857142Y-123404380D02*
X110380952Y-123404380D01*
X110380952Y-122404380D01*
X110857142Y-122404380D01*
X111619047Y-122880571D02*
X111285714Y-122880571D01*
X111285714Y-123404380D02*
X111285714Y-122404380D01*
X111761904Y-122404380D01*
X112095238Y-122499619D02*
X112142857Y-122452000D01*
X112238095Y-122404380D01*
X112476190Y-122404380D01*
X112571428Y-122452000D01*
X112619047Y-122499619D01*
X112666666Y-122594857D01*
X112666666Y-122690095D01*
X112619047Y-122832952D01*
X112047619Y-123404380D01*
X112666666Y-123404380D01*
X57952380Y-123404380D02*
X57619047Y-122928190D01*
X57380952Y-123404380D02*
X57380952Y-122404380D01*
X57761904Y-122404380D01*
X57857142Y-122452000D01*
X57904761Y-122499619D01*
X57952380Y-122594857D01*
X57952380Y-122737714D01*
X57904761Y-122832952D01*
X57857142Y-122880571D01*
X57761904Y-122928190D01*
X57380952Y-122928190D01*
X58380952Y-122880571D02*
X58714285Y-122880571D01*
X58857142Y-123404380D02*
X58380952Y-123404380D01*
X58380952Y-122404380D01*
X58857142Y-122404380D01*
X59619047Y-122880571D02*
X59285714Y-122880571D01*
X59285714Y-123404380D02*
X59285714Y-122404380D01*
X59761904Y-122404380D01*
X60666666Y-123404380D02*
X60095238Y-123404380D01*
X60380952Y-123404380D02*
X60380952Y-122404380D01*
X60285714Y-122547238D01*
X60190476Y-122642476D01*
X60095238Y-122690095D01*
M02*
