%TF.GenerationSoftware,KiCad,Pcbnew,(5.0.0-3-g0214c9d)*%
%TF.CreationDate,2018-12-11T01:20:51+01:00*%
%TF.ProjectId,AmiExtFDD,416D694578744644442E6B696361645F,rev?*%
%TF.SameCoordinates,Original*%
%TF.FileFunction,Soldermask,Top*%
%TF.FilePolarity,Negative*%
%FSLAX46Y46*%
G04 Gerber Fmt 4.6, Leading zero omitted, Abs format (unit mm)*
G04 Created by KiCad (PCBNEW (5.0.0-3-g0214c9d)) date 2018 December 11, Tuesday 01:20:51*
%MOMM*%
%LPD*%
G01*
G04 APERTURE LIST*
%ADD10R,2.000000X1.700000*%
%ADD11R,2.500000X2.000000*%
%ADD12R,1.700000X1.700000*%
%ADD13C,1.700000*%
%ADD14R,2.600000X2.000000*%
%ADD15O,2.600000X2.000000*%
%ADD16O,1.700000X1.700000*%
%ADD17R,1.600000X1.600000*%
%ADD18O,1.600000X1.600000*%
%ADD19C,4.064000*%
G04 APERTURE END LIST*
D10*
X92000000Y-100000000D03*
X96000000Y-100000000D03*
X96000000Y-106000000D03*
X92000000Y-106000000D03*
X92000000Y-94000000D03*
X96000000Y-94000000D03*
X73000000Y-69000000D03*
X77000000Y-69000000D03*
X77000000Y-64000000D03*
X73000000Y-64000000D03*
D11*
X79000000Y-55000000D03*
X79000000Y-59000000D03*
X73000000Y-59000000D03*
X73000000Y-55000000D03*
D12*
X65000000Y-85000000D03*
D13*
X62460000Y-85000000D03*
X65000000Y-82460000D03*
X62460000Y-82460000D03*
X65000000Y-79920000D03*
X62460000Y-79920000D03*
X65000000Y-77380000D03*
X62460000Y-77380000D03*
X65000000Y-74840000D03*
X62460000Y-74840000D03*
X65000000Y-72300000D03*
X62460000Y-72300000D03*
X65000000Y-69760000D03*
X62460000Y-69760000D03*
X65000000Y-67220000D03*
X62460000Y-67220000D03*
X65000000Y-64680000D03*
X62460000Y-64680000D03*
X65000000Y-62140000D03*
X62460000Y-62140000D03*
D12*
X107000000Y-103000000D03*
D13*
X104460000Y-103000000D03*
X107000000Y-100460000D03*
X104460000Y-100460000D03*
X107000000Y-97920000D03*
X104460000Y-97920000D03*
X107000000Y-95380000D03*
X104460000Y-95380000D03*
X107000000Y-92840000D03*
X104460000Y-92840000D03*
X107000000Y-90300000D03*
X104460000Y-90300000D03*
X107000000Y-87760000D03*
X104460000Y-87760000D03*
X107000000Y-85220000D03*
X104460000Y-85220000D03*
X107000000Y-82680000D03*
X104460000Y-82680000D03*
X107000000Y-80140000D03*
X104460000Y-80140000D03*
X107000000Y-77600000D03*
X104460000Y-77600000D03*
X107000000Y-75060000D03*
X104460000Y-75060000D03*
X107000000Y-72520000D03*
X104460000Y-72520000D03*
X107000000Y-69980000D03*
X104460000Y-69980000D03*
X107000000Y-67440000D03*
X104460000Y-67440000D03*
X107000000Y-64900000D03*
X104460000Y-64900000D03*
X107000000Y-62360000D03*
X104460000Y-62360000D03*
D14*
X104000000Y-121000000D03*
D15*
X104000000Y-118460000D03*
X104000000Y-115920000D03*
X104000000Y-113380000D03*
D12*
X85000000Y-55000000D03*
D16*
X87540000Y-55000000D03*
X90080000Y-55000000D03*
X90080000Y-62000000D03*
X87540000Y-62000000D03*
D12*
X85000000Y-62000000D03*
X85000000Y-69000000D03*
D16*
X87540000Y-69000000D03*
X90080000Y-69000000D03*
D12*
X85000000Y-81000000D03*
D16*
X85000000Y-78460000D03*
X87540000Y-81000000D03*
X87540000Y-78460000D03*
X90080000Y-81000000D03*
X90080000Y-78460000D03*
X90080000Y-88000000D03*
X87540000Y-88000000D03*
D12*
X85000000Y-88000000D03*
D17*
X71000000Y-102000000D03*
D18*
X86240000Y-94380000D03*
X73540000Y-102000000D03*
X83700000Y-94380000D03*
X76080000Y-102000000D03*
X81160000Y-94380000D03*
X78620000Y-102000000D03*
X78620000Y-94380000D03*
X81160000Y-102000000D03*
X76080000Y-94380000D03*
X83700000Y-102000000D03*
X73540000Y-94380000D03*
X86240000Y-102000000D03*
X71000000Y-94380000D03*
X71000000Y-108380000D03*
X86240000Y-116000000D03*
X73540000Y-108380000D03*
X83700000Y-116000000D03*
X76080000Y-108380000D03*
X81160000Y-116000000D03*
X78620000Y-108380000D03*
X78620000Y-116000000D03*
X81160000Y-108380000D03*
X76080000Y-116000000D03*
X83700000Y-108380000D03*
X73540000Y-116000000D03*
X86240000Y-108380000D03*
D17*
X71000000Y-116000000D03*
D19*
X59000000Y-54000000D03*
X111000000Y-54000000D03*
X111000000Y-126000000D03*
X59000000Y-126000000D03*
M02*
