M48
;DRILL file {KiCad (5.0.0-3-g0214c9d)} date 2018 December 11, Tuesday 01:21:48
;FORMAT={-:-/ absolute / inch / decimal}
FMAT,2
INCH,TZ
T1C0.0157
T2C0.0315
T3C0.0394
T4C0.0472
T5C0.1260
%
G90
G05
M72
T1
X3.2668Y-3.2065
X3.3356Y-3.941
T2
X2.7953Y-4.2669
X2.7953Y-4.5669
X2.8953Y-4.2669
X2.8953Y-4.5669
X2.9953Y-4.2669
X2.9953Y-4.5669
X3.0953Y-4.2669
X3.0953Y-4.5669
X3.1953Y-4.2669
X3.1953Y-4.5669
X3.2953Y-4.2669
X3.2953Y-4.5669
X3.3953Y-4.2669
X3.3953Y-4.5669
X2.7953Y-3.7157
X2.7953Y-4.0157
X2.8953Y-3.7157
X2.8953Y-4.0157
X2.9953Y-3.7157
X2.9953Y-4.0157
X3.0953Y-3.7157
X3.0953Y-4.0157
X3.1953Y-3.7157
X3.1953Y-4.0157
X3.2953Y-3.7157
X3.2953Y-4.0157
X3.3953Y-3.7157
X3.3953Y-4.0157
T3
X3.3465Y-2.4409
X3.4465Y-2.4409
X3.5465Y-2.4409
X3.3465Y-2.1654
X3.4465Y-2.1654
X3.5465Y-2.1654
X3.3465Y-3.089
X3.3465Y-3.189
X3.4465Y-3.089
X3.4465Y-3.189
X3.5465Y-3.089
X3.5465Y-3.189
X4.1126Y-2.4551
X4.1126Y-2.5551
X4.1126Y-2.6551
X4.1126Y-2.7551
X4.1126Y-2.8551
X4.1126Y-2.9551
X4.1126Y-3.0551
X4.1126Y-3.1551
X4.1126Y-3.2551
X4.1126Y-3.3551
X4.1126Y-3.4551
X4.1126Y-3.5551
X4.1126Y-3.6551
X4.1126Y-3.7551
X4.1126Y-3.8551
X4.1126Y-3.9551
X4.1126Y-4.0551
X4.2126Y-2.4551
X4.2126Y-2.5551
X4.2126Y-2.6551
X4.2126Y-2.7551
X4.2126Y-2.8551
X4.2126Y-2.9551
X4.2126Y-3.0551
X4.2126Y-3.1551
X4.2126Y-3.2551
X4.2126Y-3.3551
X4.2126Y-3.4551
X4.2126Y-3.5551
X4.2126Y-3.6551
X4.2126Y-3.7551
X4.2126Y-3.8551
X4.2126Y-3.9551
X4.2126Y-4.0551
X2.4591Y-2.4465
X2.4591Y-2.5465
X2.4591Y-2.6465
X2.4591Y-2.7465
X2.4591Y-2.8465
X2.4591Y-2.9465
X2.4591Y-3.0465
X2.4591Y-3.1465
X2.4591Y-3.2465
X2.4591Y-3.3465
X2.5591Y-2.4465
X2.5591Y-2.5465
X2.5591Y-2.6465
X2.5591Y-2.7465
X2.5591Y-2.8465
X2.5591Y-2.9465
X2.5591Y-3.0465
X2.5591Y-3.1465
X2.5591Y-3.2465
X2.5591Y-3.3465
X3.3465Y-2.7165
X3.4465Y-2.7165
X3.5465Y-2.7165
X3.3465Y-3.4646
X3.4465Y-3.4646
X3.5465Y-3.4646
T4
X4.0945Y-4.4638
X4.0945Y-4.5638
X4.0945Y-4.6638
X4.0945Y-4.7638
T5
X2.3228Y-2.126
X4.3701Y-2.126
X4.3701Y-4.9606
X2.3228Y-4.9606
T0
M30
