%TF.GenerationSoftware,KiCad,Pcbnew,(5.0.0-3-g0214c9d)*%
%TF.CreationDate,2018-12-11T01:20:51+01:00*%
%TF.ProjectId,AmiExtFDD,416D694578744644442E6B696361645F,rev?*%
%TF.SameCoordinates,Original*%
%TF.FileFunction,Copper,L2,Bot,Signal*%
%TF.FilePolarity,Positive*%
%FSLAX46Y46*%
G04 Gerber Fmt 4.6, Leading zero omitted, Abs format (unit mm)*
G04 Created by KiCad (PCBNEW (5.0.0-3-g0214c9d)) date 2018 December 11, Tuesday 01:20:51*
%MOMM*%
%LPD*%
G01*
G04 APERTURE LIST*
%ADD10C,0.300000*%
%ADD11R,1.700000X1.700000*%
%ADD12C,1.700000*%
%ADD13R,2.600000X2.000000*%
%ADD14O,2.600000X2.000000*%
%ADD15O,1.700000X1.700000*%
%ADD16R,1.600000X1.600000*%
%ADD17O,1.600000X1.600000*%
%ADD18C,4.064000*%
%ADD19C,0.800000*%
%ADD20C,0.250000*%
%ADD21C,0.254000*%
G04 APERTURE END LIST*
D10*
X62975000Y-100535714D02*
X62903571Y-100464285D01*
X62689285Y-100321428D01*
X62546428Y-100250000D01*
X62332142Y-100178571D01*
X61975000Y-100107142D01*
X61689285Y-100107142D01*
X61332142Y-100178571D01*
X61117857Y-100250000D01*
X60975000Y-100321428D01*
X60760714Y-100464285D01*
X60689285Y-100535714D01*
X62332142Y-101750000D02*
X62403571Y-101607142D01*
X62403571Y-101321428D01*
X62332142Y-101178571D01*
X62260714Y-101107142D01*
X62117857Y-101035714D01*
X61689285Y-101035714D01*
X61546428Y-101107142D01*
X61475000Y-101178571D01*
X61403571Y-101321428D01*
X61403571Y-101607142D01*
X61475000Y-101750000D01*
X62975000Y-102250000D02*
X62903571Y-102321428D01*
X62689285Y-102464285D01*
X62546428Y-102535714D01*
X62332142Y-102607142D01*
X61975000Y-102678571D01*
X61689285Y-102678571D01*
X61332142Y-102607142D01*
X61117857Y-102535714D01*
X60975000Y-102464285D01*
X60760714Y-102321428D01*
X60689285Y-102250000D01*
X62403571Y-104750000D02*
X62332142Y-104607142D01*
X62189285Y-104535714D01*
X60903571Y-104535714D01*
X62403571Y-105535714D02*
X62332142Y-105392857D01*
X62260714Y-105321428D01*
X62117857Y-105250000D01*
X61689285Y-105250000D01*
X61546428Y-105321428D01*
X61475000Y-105392857D01*
X61403571Y-105535714D01*
X61403571Y-105750000D01*
X61475000Y-105892857D01*
X61546428Y-105964285D01*
X61689285Y-106035714D01*
X62117857Y-106035714D01*
X62260714Y-105964285D01*
X62332142Y-105892857D01*
X62403571Y-105750000D01*
X62403571Y-105535714D01*
X62332142Y-107250000D02*
X62403571Y-107107142D01*
X62403571Y-106821428D01*
X62332142Y-106678571D01*
X62189285Y-106607142D01*
X61617857Y-106607142D01*
X61475000Y-106678571D01*
X61403571Y-106821428D01*
X61403571Y-107107142D01*
X61475000Y-107250000D01*
X61617857Y-107321428D01*
X61760714Y-107321428D01*
X61903571Y-106607142D01*
X61403571Y-107964285D02*
X62903571Y-107964285D01*
X61475000Y-107964285D02*
X61403571Y-108107142D01*
X61403571Y-108392857D01*
X61475000Y-108535714D01*
X61546428Y-108607142D01*
X61689285Y-108678571D01*
X62117857Y-108678571D01*
X62260714Y-108607142D01*
X62332142Y-108535714D01*
X62403571Y-108392857D01*
X62403571Y-108107142D01*
X62332142Y-107964285D01*
X62403571Y-109321428D02*
X60903571Y-109321428D01*
X61832142Y-109464285D02*
X62403571Y-109892857D01*
X61403571Y-109892857D02*
X61975000Y-109321428D01*
X62332142Y-111107142D02*
X62403571Y-110964285D01*
X62403571Y-110678571D01*
X62332142Y-110535714D01*
X62189285Y-110464285D01*
X61617857Y-110464285D01*
X61475000Y-110535714D01*
X61403571Y-110678571D01*
X61403571Y-110964285D01*
X61475000Y-111107142D01*
X61617857Y-111178571D01*
X61760714Y-111178571D01*
X61903571Y-110464285D01*
X61832142Y-111821428D02*
X61832142Y-112964285D01*
X62403571Y-113678571D02*
X61403571Y-113678571D01*
X60903571Y-113678571D02*
X60975000Y-113607142D01*
X61046428Y-113678571D01*
X60975000Y-113750000D01*
X60903571Y-113678571D01*
X61046428Y-113678571D01*
X61403571Y-114178571D02*
X61403571Y-114750000D01*
X60903571Y-114392857D02*
X62189285Y-114392857D01*
X62332142Y-114464285D01*
X62403571Y-114607142D01*
X62403571Y-114750000D01*
X62260714Y-115250000D02*
X62332142Y-115321428D01*
X62403571Y-115250000D01*
X62332142Y-115178571D01*
X62260714Y-115250000D01*
X62403571Y-115250000D01*
X62403571Y-116607142D02*
X60903571Y-116607142D01*
X62332142Y-116607142D02*
X62403571Y-116464285D01*
X62403571Y-116178571D01*
X62332142Y-116035714D01*
X62260714Y-115964285D01*
X62117857Y-115892857D01*
X61689285Y-115892857D01*
X61546428Y-115964285D01*
X61475000Y-116035714D01*
X61403571Y-116178571D01*
X61403571Y-116464285D01*
X61475000Y-116607142D01*
X62332142Y-117892857D02*
X62403571Y-117750000D01*
X62403571Y-117464285D01*
X62332142Y-117321428D01*
X62189285Y-117250000D01*
X61617857Y-117250000D01*
X61475000Y-117321428D01*
X61403571Y-117464285D01*
X61403571Y-117750000D01*
X61475000Y-117892857D01*
X61617857Y-117964285D01*
X61760714Y-117964285D01*
X61903571Y-117250000D01*
X64525000Y-98071428D02*
X64525000Y-98785714D01*
X64953571Y-97928571D02*
X63453571Y-98428571D01*
X64953571Y-98928571D01*
X64953571Y-99428571D02*
X63953571Y-99428571D01*
X64096428Y-99428571D02*
X64025000Y-99500000D01*
X63953571Y-99642857D01*
X63953571Y-99857142D01*
X64025000Y-100000000D01*
X64167857Y-100071428D01*
X64953571Y-100071428D01*
X64167857Y-100071428D02*
X64025000Y-100142857D01*
X63953571Y-100285714D01*
X63953571Y-100500000D01*
X64025000Y-100642857D01*
X64167857Y-100714285D01*
X64953571Y-100714285D01*
X64953571Y-101428571D02*
X63953571Y-101428571D01*
X63453571Y-101428571D02*
X63525000Y-101357142D01*
X63596428Y-101428571D01*
X63525000Y-101500000D01*
X63453571Y-101428571D01*
X63596428Y-101428571D01*
X63953571Y-102785714D02*
X65167857Y-102785714D01*
X65310714Y-102714285D01*
X65382142Y-102642857D01*
X65453571Y-102500000D01*
X65453571Y-102285714D01*
X65382142Y-102142857D01*
X64882142Y-102785714D02*
X64953571Y-102642857D01*
X64953571Y-102357142D01*
X64882142Y-102214285D01*
X64810714Y-102142857D01*
X64667857Y-102071428D01*
X64239285Y-102071428D01*
X64096428Y-102142857D01*
X64025000Y-102214285D01*
X63953571Y-102357142D01*
X63953571Y-102642857D01*
X64025000Y-102785714D01*
X64953571Y-104142857D02*
X64167857Y-104142857D01*
X64025000Y-104071428D01*
X63953571Y-103928571D01*
X63953571Y-103642857D01*
X64025000Y-103500000D01*
X64882142Y-104142857D02*
X64953571Y-104000000D01*
X64953571Y-103642857D01*
X64882142Y-103500000D01*
X64739285Y-103428571D01*
X64596428Y-103428571D01*
X64453571Y-103500000D01*
X64382142Y-103642857D01*
X64382142Y-104000000D01*
X64310714Y-104142857D01*
X64167857Y-106000000D02*
X64167857Y-106500000D01*
X64953571Y-106714285D02*
X64953571Y-106000000D01*
X63453571Y-106000000D01*
X63453571Y-106714285D01*
X64953571Y-107214285D02*
X63953571Y-108000000D01*
X63953571Y-107214285D02*
X64953571Y-108000000D01*
X63953571Y-108357142D02*
X63953571Y-108928571D01*
X63453571Y-108571428D02*
X64739285Y-108571428D01*
X64882142Y-108642857D01*
X64953571Y-108785714D01*
X64953571Y-108928571D01*
X64882142Y-110000000D02*
X64953571Y-109857142D01*
X64953571Y-109571428D01*
X64882142Y-109428571D01*
X64739285Y-109357142D01*
X64167857Y-109357142D01*
X64025000Y-109428571D01*
X63953571Y-109571428D01*
X63953571Y-109857142D01*
X64025000Y-110000000D01*
X64167857Y-110071428D01*
X64310714Y-110071428D01*
X64453571Y-109357142D01*
X64953571Y-110714285D02*
X63953571Y-110714285D01*
X64239285Y-110714285D02*
X64096428Y-110785714D01*
X64025000Y-110857142D01*
X63953571Y-111000000D01*
X63953571Y-111142857D01*
X63953571Y-111642857D02*
X64953571Y-111642857D01*
X64096428Y-111642857D02*
X64025000Y-111714285D01*
X63953571Y-111857142D01*
X63953571Y-112071428D01*
X64025000Y-112214285D01*
X64167857Y-112285714D01*
X64953571Y-112285714D01*
X64953571Y-113642857D02*
X64167857Y-113642857D01*
X64025000Y-113571428D01*
X63953571Y-113428571D01*
X63953571Y-113142857D01*
X64025000Y-113000000D01*
X64882142Y-113642857D02*
X64953571Y-113500000D01*
X64953571Y-113142857D01*
X64882142Y-113000000D01*
X64739285Y-112928571D01*
X64596428Y-112928571D01*
X64453571Y-113000000D01*
X64382142Y-113142857D01*
X64382142Y-113500000D01*
X64310714Y-113642857D01*
X64953571Y-114571428D02*
X64882142Y-114428571D01*
X64739285Y-114357142D01*
X63453571Y-114357142D01*
X64167857Y-116785714D02*
X64167857Y-116285714D01*
X64953571Y-116285714D02*
X63453571Y-116285714D01*
X63453571Y-117000000D01*
X64953571Y-117571428D02*
X63453571Y-117571428D01*
X63453571Y-117928571D01*
X63525000Y-118142857D01*
X63667857Y-118285714D01*
X63810714Y-118357142D01*
X64096428Y-118428571D01*
X64310714Y-118428571D01*
X64596428Y-118357142D01*
X64739285Y-118285714D01*
X64882142Y-118142857D01*
X64953571Y-117928571D01*
X64953571Y-117571428D01*
X64953571Y-119071428D02*
X63453571Y-119071428D01*
X63453571Y-119428571D01*
X63525000Y-119642857D01*
X63667857Y-119785714D01*
X63810714Y-119857142D01*
X64096428Y-119928571D01*
X64310714Y-119928571D01*
X64596428Y-119857142D01*
X64739285Y-119785714D01*
X64882142Y-119642857D01*
X64953571Y-119428571D01*
X64953571Y-119071428D01*
D11*
X65000000Y-85000000D03*
D12*
X62460000Y-85000000D03*
X65000000Y-82460000D03*
X62460000Y-82460000D03*
X65000000Y-79920000D03*
X62460000Y-79920000D03*
X65000000Y-77380000D03*
X62460000Y-77380000D03*
X65000000Y-74840000D03*
X62460000Y-74840000D03*
X65000000Y-72300000D03*
X62460000Y-72300000D03*
X65000000Y-69760000D03*
X62460000Y-69760000D03*
X65000000Y-67220000D03*
X62460000Y-67220000D03*
X65000000Y-64680000D03*
X62460000Y-64680000D03*
X65000000Y-62140000D03*
X62460000Y-62140000D03*
D11*
X107000000Y-103000000D03*
D12*
X104460000Y-103000000D03*
X107000000Y-100460000D03*
X104460000Y-100460000D03*
X107000000Y-97920000D03*
X104460000Y-97920000D03*
X107000000Y-95380000D03*
X104460000Y-95380000D03*
X107000000Y-92840000D03*
X104460000Y-92840000D03*
X107000000Y-90300000D03*
X104460000Y-90300000D03*
X107000000Y-87760000D03*
X104460000Y-87760000D03*
X107000000Y-85220000D03*
X104460000Y-85220000D03*
X107000000Y-82680000D03*
X104460000Y-82680000D03*
X107000000Y-80140000D03*
X104460000Y-80140000D03*
X107000000Y-77600000D03*
X104460000Y-77600000D03*
X107000000Y-75060000D03*
X104460000Y-75060000D03*
X107000000Y-72520000D03*
X104460000Y-72520000D03*
X107000000Y-69980000D03*
X104460000Y-69980000D03*
X107000000Y-67440000D03*
X104460000Y-67440000D03*
X107000000Y-64900000D03*
X104460000Y-64900000D03*
X107000000Y-62360000D03*
X104460000Y-62360000D03*
D13*
X104000000Y-121000000D03*
D14*
X104000000Y-118460000D03*
X104000000Y-115920000D03*
X104000000Y-113380000D03*
D11*
X85000000Y-55000000D03*
D15*
X87540000Y-55000000D03*
X90080000Y-55000000D03*
X90080000Y-62000000D03*
X87540000Y-62000000D03*
D11*
X85000000Y-62000000D03*
X85000000Y-69000000D03*
D15*
X87540000Y-69000000D03*
X90080000Y-69000000D03*
D11*
X85000000Y-81000000D03*
D15*
X85000000Y-78460000D03*
X87540000Y-81000000D03*
X87540000Y-78460000D03*
X90080000Y-81000000D03*
X90080000Y-78460000D03*
X90080000Y-88000000D03*
X87540000Y-88000000D03*
D11*
X85000000Y-88000000D03*
D16*
X71000000Y-102000000D03*
D17*
X86240000Y-94380000D03*
X73540000Y-102000000D03*
X83700000Y-94380000D03*
X76080000Y-102000000D03*
X81160000Y-94380000D03*
X78620000Y-102000000D03*
X78620000Y-94380000D03*
X81160000Y-102000000D03*
X76080000Y-94380000D03*
X83700000Y-102000000D03*
X73540000Y-94380000D03*
X86240000Y-102000000D03*
X71000000Y-94380000D03*
X71000000Y-108380000D03*
X86240000Y-116000000D03*
X73540000Y-108380000D03*
X83700000Y-116000000D03*
X76080000Y-108380000D03*
X81160000Y-116000000D03*
X78620000Y-108380000D03*
X78620000Y-116000000D03*
X81160000Y-108380000D03*
X76080000Y-116000000D03*
X83700000Y-108380000D03*
X73540000Y-116000000D03*
X86240000Y-108380000D03*
D16*
X71000000Y-116000000D03*
D18*
X59000000Y-54000000D03*
X111000000Y-54000000D03*
X111000000Y-126000000D03*
X59000000Y-126000000D03*
D19*
X84723600Y-100101800D03*
X82977000Y-81444100D03*
D20*
X81160000Y-94380000D02*
X81160000Y-95505300D01*
X86240000Y-100874700D02*
X86240000Y-100585300D01*
X86240000Y-100585300D02*
X81160000Y-95505300D01*
X81160000Y-94380000D02*
X79745300Y-94380000D01*
X78620000Y-94380000D02*
X79745300Y-94380000D01*
X76080000Y-94380000D02*
X78620000Y-94380000D01*
X73540000Y-94380000D02*
X76080000Y-94380000D01*
X86240000Y-102000000D02*
X86240000Y-100874700D01*
X104000000Y-115920000D02*
X102374700Y-115920000D01*
X86240000Y-116000000D02*
X102294700Y-116000000D01*
X102294700Y-116000000D02*
X102374700Y-115920000D01*
X87540000Y-88000000D02*
X86364700Y-88000000D01*
X86364700Y-88000000D02*
X86364700Y-87192000D01*
X86364700Y-87192000D02*
X84172700Y-85000000D01*
X84172700Y-85000000D02*
X65000000Y-85000000D01*
X104460000Y-64900000D02*
X85035400Y-64900000D01*
X85035400Y-64900000D02*
X80142100Y-60006700D01*
X80142100Y-60006700D02*
X62286900Y-60006700D01*
X62286900Y-60006700D02*
X59467100Y-62826500D01*
X59467100Y-62826500D02*
X59467100Y-82007100D01*
X59467100Y-82007100D02*
X62460000Y-85000000D01*
X104460000Y-67440000D02*
X102915700Y-65895700D01*
X102915700Y-65895700D02*
X84562100Y-65895700D01*
X84562100Y-65895700D02*
X79144700Y-60478300D01*
X79144700Y-60478300D02*
X62452200Y-60478300D01*
X62452200Y-60478300D02*
X59917400Y-63013100D01*
X59917400Y-63013100D02*
X59917400Y-81583800D01*
X59917400Y-81583800D02*
X61984200Y-83650600D01*
X61984200Y-83650600D02*
X63809400Y-83650600D01*
X63809400Y-83650600D02*
X65000000Y-82460000D01*
X104460000Y-69980000D02*
X100880500Y-66400500D01*
X100880500Y-66400500D02*
X73147600Y-66400500D01*
X73147600Y-66400500D02*
X67692400Y-60945300D01*
X67692400Y-60945300D02*
X64531400Y-60945300D01*
X64531400Y-60945300D02*
X63712100Y-61764600D01*
X63712100Y-61764600D02*
X63712100Y-62579900D01*
X63712100Y-62579900D02*
X62882000Y-63410000D01*
X62882000Y-63410000D02*
X62036400Y-63410000D01*
X62036400Y-63410000D02*
X60367700Y-65078700D01*
X60367700Y-65078700D02*
X60367700Y-80367700D01*
X60367700Y-80367700D02*
X62460000Y-82460000D01*
X62460000Y-79920000D02*
X63730000Y-81190000D01*
X63730000Y-81190000D02*
X73884200Y-81190000D01*
X73884200Y-81190000D02*
X76733200Y-84039000D01*
X76733200Y-84039000D02*
X96326700Y-84039000D01*
X96326700Y-84039000D02*
X99050300Y-81315400D01*
X99050300Y-81315400D02*
X104949500Y-81315400D01*
X104949500Y-81315400D02*
X105635400Y-80629500D01*
X105635400Y-80629500D02*
X105635400Y-73695400D01*
X105635400Y-73695400D02*
X104460000Y-72520000D01*
X62460000Y-77380000D02*
X61268300Y-76188300D01*
X61268300Y-76188300D02*
X61268300Y-74329900D01*
X61268300Y-74329900D02*
X61973500Y-73624700D01*
X61973500Y-73624700D02*
X69017600Y-73624700D01*
X69017600Y-73624700D02*
X78041700Y-82648800D01*
X78041700Y-82648800D02*
X92012100Y-82648800D01*
X92012100Y-82648800D02*
X99600900Y-75060000D01*
X99600900Y-75060000D02*
X104460000Y-75060000D01*
X62460000Y-74840000D02*
X63809400Y-76189400D01*
X63809400Y-76189400D02*
X70720300Y-76189400D01*
X70720300Y-76189400D02*
X77630000Y-83099100D01*
X77630000Y-83099100D02*
X95453400Y-83099100D01*
X95453400Y-83099100D02*
X100952500Y-77600000D01*
X100952500Y-77600000D02*
X104460000Y-77600000D01*
X74665300Y-102000000D02*
X74665300Y-101718700D01*
X74665300Y-101718700D02*
X76282200Y-100101800D01*
X76282200Y-100101800D02*
X84723600Y-100101800D01*
X73540000Y-102000000D02*
X74665300Y-102000000D01*
X62460000Y-72300000D02*
X60818000Y-73942000D01*
X60818000Y-73942000D02*
X60818000Y-77449400D01*
X60818000Y-77449400D02*
X62018600Y-78650000D01*
X62018600Y-78650000D02*
X72544000Y-78650000D01*
X72544000Y-78650000D02*
X77443400Y-83549400D01*
X77443400Y-83549400D02*
X95864900Y-83549400D01*
X95864900Y-83549400D02*
X99274300Y-80140000D01*
X99274300Y-80140000D02*
X104460000Y-80140000D01*
X82977000Y-81444100D02*
X78587200Y-81444100D01*
X78587200Y-81444100D02*
X66903100Y-69760000D01*
X66903100Y-69760000D02*
X65000000Y-69760000D01*
X104460000Y-82680000D02*
X105650600Y-83870600D01*
X105650600Y-83870600D02*
X107490700Y-83870600D01*
X107490700Y-83870600D02*
X108232000Y-83129300D01*
X108232000Y-83129300D02*
X108232000Y-74629500D01*
X108232000Y-74629500D02*
X107392500Y-73790000D01*
X107392500Y-73790000D02*
X106556800Y-73790000D01*
X106556800Y-73790000D02*
X105635400Y-72868600D01*
X105635400Y-72868600D02*
X105635400Y-71994400D01*
X105635400Y-71994400D02*
X104891000Y-71250000D01*
X104891000Y-71250000D02*
X75399900Y-71250000D01*
X75399900Y-71250000D02*
X67654500Y-63504600D01*
X67654500Y-63504600D02*
X64474400Y-63504600D01*
X64474400Y-63504600D02*
X63730000Y-64249000D01*
X63730000Y-64249000D02*
X63730000Y-65089400D01*
X63730000Y-65089400D02*
X62869400Y-65950000D01*
X62869400Y-65950000D02*
X62057500Y-65950000D01*
X62057500Y-65950000D02*
X61275800Y-66731700D01*
X61275800Y-66731700D02*
X61275800Y-68575800D01*
X61275800Y-68575800D02*
X62460000Y-69760000D01*
X86364700Y-81000000D02*
X86364700Y-80191900D01*
X86364700Y-80191900D02*
X85997500Y-79824700D01*
X85997500Y-79824700D02*
X78241600Y-79824700D01*
X78241600Y-79824700D02*
X65636900Y-67220000D01*
X65636900Y-67220000D02*
X65000000Y-67220000D01*
X87540000Y-81000000D02*
X86364700Y-81000000D01*
X62460000Y-67220000D02*
X63824600Y-68584600D01*
X63824600Y-68584600D02*
X63824600Y-70285600D01*
X63824600Y-70285600D02*
X64569000Y-71030000D01*
X64569000Y-71030000D02*
X67134100Y-71030000D01*
X67134100Y-71030000D02*
X78302600Y-82198500D01*
X78302600Y-82198500D02*
X88009300Y-82198500D01*
X88009300Y-82198500D02*
X88904700Y-81303100D01*
X88904700Y-81303100D02*
X88904700Y-81000000D01*
X90080000Y-81000000D02*
X88904700Y-81000000D01*
X83824700Y-81000000D02*
X83386000Y-80561300D01*
X83386000Y-80561300D02*
X78341300Y-80561300D01*
X78341300Y-80561300D02*
X66270000Y-68490000D01*
X66270000Y-68490000D02*
X64543600Y-68490000D01*
X64543600Y-68490000D02*
X63822700Y-67769100D01*
X63822700Y-67769100D02*
X63822700Y-65857300D01*
X63822700Y-65857300D02*
X65000000Y-64680000D01*
X85000000Y-81000000D02*
X83824700Y-81000000D01*
X81160000Y-116000000D02*
X82285300Y-116000000D01*
X82285300Y-116000000D02*
X82285300Y-115818600D01*
X82285300Y-115818600D02*
X102723900Y-95380000D01*
X102723900Y-95380000D02*
X104460000Y-95380000D01*
X86240000Y-108380000D02*
X86240000Y-107254700D01*
X86240000Y-107254700D02*
X103095400Y-90399300D01*
X103095400Y-90399300D02*
X103095400Y-86584600D01*
X103095400Y-86584600D02*
X104460000Y-85220000D01*
X90080000Y-55587600D02*
X96852400Y-62360000D01*
X96852400Y-62360000D02*
X104460000Y-62360000D01*
X90080000Y-55587600D02*
X90080000Y-56175300D01*
X90080000Y-55000000D02*
X90080000Y-55587600D01*
X85000000Y-62000000D02*
X85000000Y-60824700D01*
X85000000Y-60824700D02*
X89649400Y-56175300D01*
X89649400Y-56175300D02*
X90080000Y-56175300D01*
X71000000Y-116000000D02*
X73540000Y-116000000D01*
X79745300Y-108380000D02*
X79745300Y-108098600D01*
X79745300Y-108098600D02*
X80589200Y-107254700D01*
X80589200Y-107254700D02*
X82666500Y-107254700D01*
X82666500Y-107254700D02*
X90080000Y-99841200D01*
X90080000Y-99841200D02*
X90080000Y-89175300D01*
X90080000Y-88000000D02*
X90080000Y-89175300D01*
X78620000Y-108380000D02*
X79745300Y-108380000D01*
X76080000Y-102000000D02*
X76080000Y-103125300D01*
X76080000Y-103125300D02*
X73540000Y-105665300D01*
X73540000Y-105665300D02*
X73540000Y-108380000D01*
X81160000Y-102000000D02*
X81160000Y-103125300D01*
X76080000Y-108380000D02*
X76080000Y-107254700D01*
X76080000Y-107254700D02*
X80209400Y-103125300D01*
X80209400Y-103125300D02*
X81160000Y-103125300D01*
X83700000Y-108380000D02*
X81160000Y-108380000D01*
D21*
G36*
X114315000Y-129315000D02*
X55685000Y-129315000D01*
X55685000Y-125469501D01*
X56333000Y-125469501D01*
X56333000Y-126530499D01*
X56739026Y-127510734D01*
X57489266Y-128260974D01*
X58469501Y-128667000D01*
X59530499Y-128667000D01*
X60510734Y-128260974D01*
X61260974Y-127510734D01*
X61667000Y-126530499D01*
X61667000Y-125469501D01*
X108333000Y-125469501D01*
X108333000Y-126530499D01*
X108739026Y-127510734D01*
X109489266Y-128260974D01*
X110469501Y-128667000D01*
X111530499Y-128667000D01*
X112510734Y-128260974D01*
X113260974Y-127510734D01*
X113667000Y-126530499D01*
X113667000Y-125469501D01*
X113260974Y-124489266D01*
X112510734Y-123739026D01*
X111530499Y-123333000D01*
X110469501Y-123333000D01*
X109489266Y-123739026D01*
X108739026Y-124489266D01*
X108333000Y-125469501D01*
X61667000Y-125469501D01*
X61260974Y-124489266D01*
X60510734Y-123739026D01*
X59530499Y-123333000D01*
X58469501Y-123333000D01*
X57489266Y-123739026D01*
X56739026Y-124489266D01*
X56333000Y-125469501D01*
X55685000Y-125469501D01*
X55685000Y-97000714D01*
X59935000Y-97000714D01*
X59935000Y-120999285D01*
X66305000Y-120999285D01*
X66305000Y-120000000D01*
X102052560Y-120000000D01*
X102052560Y-122000000D01*
X102101843Y-122247765D01*
X102242191Y-122457809D01*
X102452235Y-122598157D01*
X102700000Y-122647440D01*
X105300000Y-122647440D01*
X105547765Y-122598157D01*
X105757809Y-122457809D01*
X105898157Y-122247765D01*
X105947440Y-122000000D01*
X105947440Y-120000000D01*
X105898157Y-119752235D01*
X105757809Y-119542191D01*
X105597240Y-119434901D01*
X105859144Y-118968355D01*
X105890124Y-118840434D01*
X105770777Y-118587000D01*
X104127000Y-118587000D01*
X104127000Y-118607000D01*
X103873000Y-118607000D01*
X103873000Y-118587000D01*
X102229223Y-118587000D01*
X102109876Y-118840434D01*
X102140856Y-118968355D01*
X102402760Y-119434901D01*
X102242191Y-119542191D01*
X102101843Y-119752235D01*
X102052560Y-120000000D01*
X66305000Y-120000000D01*
X66305000Y-97000714D01*
X59935000Y-97000714D01*
X55685000Y-97000714D01*
X55685000Y-94380000D01*
X69536887Y-94380000D01*
X69648260Y-94939909D01*
X69965423Y-95414577D01*
X70440091Y-95731740D01*
X70858667Y-95815000D01*
X71141333Y-95815000D01*
X71559909Y-95731740D01*
X72034577Y-95414577D01*
X72290947Y-95030892D01*
X72387611Y-95235134D01*
X72802577Y-95611041D01*
X73190961Y-95771904D01*
X73413000Y-95649915D01*
X73413000Y-94507000D01*
X73667000Y-94507000D01*
X73667000Y-95649915D01*
X73889039Y-95771904D01*
X74277423Y-95611041D01*
X74692389Y-95235134D01*
X74810000Y-94986633D01*
X74927611Y-95235134D01*
X75342577Y-95611041D01*
X75730961Y-95771904D01*
X75953000Y-95649915D01*
X75953000Y-94507000D01*
X76207000Y-94507000D01*
X76207000Y-95649915D01*
X76429039Y-95771904D01*
X76817423Y-95611041D01*
X77232389Y-95235134D01*
X77350000Y-94986633D01*
X77467611Y-95235134D01*
X77882577Y-95611041D01*
X78270961Y-95771904D01*
X78493000Y-95649915D01*
X78493000Y-94507000D01*
X78747000Y-94507000D01*
X78747000Y-95649915D01*
X78969039Y-95771904D01*
X79357423Y-95611041D01*
X79772389Y-95235134D01*
X79890000Y-94986633D01*
X80007611Y-95235134D01*
X80422577Y-95611041D01*
X80810961Y-95771904D01*
X81033000Y-95649915D01*
X81033000Y-94507000D01*
X78747000Y-94507000D01*
X78493000Y-94507000D01*
X76207000Y-94507000D01*
X75953000Y-94507000D01*
X73667000Y-94507000D01*
X73413000Y-94507000D01*
X73393000Y-94507000D01*
X73393000Y-94253000D01*
X73413000Y-94253000D01*
X73413000Y-93110085D01*
X73667000Y-93110085D01*
X73667000Y-94253000D01*
X75953000Y-94253000D01*
X75953000Y-93110085D01*
X76207000Y-93110085D01*
X76207000Y-94253000D01*
X78493000Y-94253000D01*
X78493000Y-93110085D01*
X78747000Y-93110085D01*
X78747000Y-94253000D01*
X81033000Y-94253000D01*
X81033000Y-93110085D01*
X81287000Y-93110085D01*
X81287000Y-94253000D01*
X81307000Y-94253000D01*
X81307000Y-94507000D01*
X81287000Y-94507000D01*
X81287000Y-95649915D01*
X81509039Y-95771904D01*
X81897423Y-95611041D01*
X82312389Y-95235134D01*
X82409053Y-95030892D01*
X82665423Y-95414577D01*
X83140091Y-95731740D01*
X83558667Y-95815000D01*
X83841333Y-95815000D01*
X84259909Y-95731740D01*
X84734577Y-95414577D01*
X84970000Y-95062242D01*
X85205423Y-95414577D01*
X85680091Y-95731740D01*
X86098667Y-95815000D01*
X86381333Y-95815000D01*
X86799909Y-95731740D01*
X87274577Y-95414577D01*
X87591740Y-94939909D01*
X87703113Y-94380000D01*
X87591740Y-93820091D01*
X87274577Y-93345423D01*
X86799909Y-93028260D01*
X86381333Y-92945000D01*
X86098667Y-92945000D01*
X85680091Y-93028260D01*
X85205423Y-93345423D01*
X84970000Y-93697758D01*
X84734577Y-93345423D01*
X84259909Y-93028260D01*
X83841333Y-92945000D01*
X83558667Y-92945000D01*
X83140091Y-93028260D01*
X82665423Y-93345423D01*
X82409053Y-93729108D01*
X82312389Y-93524866D01*
X81897423Y-93148959D01*
X81509039Y-92988096D01*
X81287000Y-93110085D01*
X81033000Y-93110085D01*
X80810961Y-92988096D01*
X80422577Y-93148959D01*
X80007611Y-93524866D01*
X79890000Y-93773367D01*
X79772389Y-93524866D01*
X79357423Y-93148959D01*
X78969039Y-92988096D01*
X78747000Y-93110085D01*
X78493000Y-93110085D01*
X78270961Y-92988096D01*
X77882577Y-93148959D01*
X77467611Y-93524866D01*
X77350000Y-93773367D01*
X77232389Y-93524866D01*
X76817423Y-93148959D01*
X76429039Y-92988096D01*
X76207000Y-93110085D01*
X75953000Y-93110085D01*
X75730961Y-92988096D01*
X75342577Y-93148959D01*
X74927611Y-93524866D01*
X74810000Y-93773367D01*
X74692389Y-93524866D01*
X74277423Y-93148959D01*
X73889039Y-92988096D01*
X73667000Y-93110085D01*
X73413000Y-93110085D01*
X73190961Y-92988096D01*
X72802577Y-93148959D01*
X72387611Y-93524866D01*
X72290947Y-93729108D01*
X72034577Y-93345423D01*
X71559909Y-93028260D01*
X71141333Y-92945000D01*
X70858667Y-92945000D01*
X70440091Y-93028260D01*
X69965423Y-93345423D01*
X69648260Y-93820091D01*
X69536887Y-94380000D01*
X55685000Y-94380000D01*
X55685000Y-62826500D01*
X58692212Y-62826500D01*
X58707100Y-62901347D01*
X58707101Y-81932248D01*
X58692212Y-82007100D01*
X58751197Y-82303637D01*
X58868438Y-82479100D01*
X58919172Y-82555029D01*
X58982628Y-82597429D01*
X61008628Y-84623430D01*
X60975000Y-84704615D01*
X60975000Y-85295385D01*
X61201078Y-85841185D01*
X61618815Y-86258922D01*
X62164615Y-86485000D01*
X62755385Y-86485000D01*
X63301185Y-86258922D01*
X63536994Y-86023113D01*
X63551843Y-86097765D01*
X63692191Y-86307809D01*
X63902235Y-86448157D01*
X64150000Y-86497440D01*
X65850000Y-86497440D01*
X66097765Y-86448157D01*
X66307809Y-86307809D01*
X66448157Y-86097765D01*
X66497440Y-85850000D01*
X66497440Y-85760000D01*
X83857899Y-85760000D01*
X84600459Y-86502560D01*
X84150000Y-86502560D01*
X83902235Y-86551843D01*
X83692191Y-86692191D01*
X83551843Y-86902235D01*
X83502560Y-87150000D01*
X83502560Y-88850000D01*
X83551843Y-89097765D01*
X83692191Y-89307809D01*
X83902235Y-89448157D01*
X84150000Y-89497440D01*
X85850000Y-89497440D01*
X86097765Y-89448157D01*
X86307809Y-89307809D01*
X86448157Y-89097765D01*
X86457184Y-89052381D01*
X86469375Y-89070625D01*
X86960582Y-89398839D01*
X87393744Y-89485000D01*
X87686256Y-89485000D01*
X88119418Y-89398839D01*
X88610625Y-89070625D01*
X88810000Y-88772239D01*
X89009375Y-89070625D01*
X89320001Y-89278179D01*
X89320000Y-99526398D01*
X87491699Y-101354699D01*
X87392389Y-101144866D01*
X86977423Y-100768959D01*
X86589039Y-100608096D01*
X86367000Y-100730085D01*
X86367000Y-101873000D01*
X86387000Y-101873000D01*
X86387000Y-102127000D01*
X86367000Y-102127000D01*
X86367000Y-102147000D01*
X86113000Y-102147000D01*
X86113000Y-102127000D01*
X86093000Y-102127000D01*
X86093000Y-101873000D01*
X86113000Y-101873000D01*
X86113000Y-100730085D01*
X85890961Y-100608096D01*
X85532578Y-100756533D01*
X85601031Y-100688080D01*
X85758600Y-100307674D01*
X85758600Y-99895926D01*
X85601031Y-99515520D01*
X85309880Y-99224369D01*
X84929474Y-99066800D01*
X84517726Y-99066800D01*
X84137320Y-99224369D01*
X84019889Y-99341800D01*
X76357047Y-99341800D01*
X76282200Y-99326912D01*
X76207353Y-99341800D01*
X76207348Y-99341800D01*
X75985663Y-99385896D01*
X75734271Y-99553871D01*
X75691871Y-99617327D01*
X74436222Y-100872977D01*
X74099909Y-100648260D01*
X73681333Y-100565000D01*
X73398667Y-100565000D01*
X72980091Y-100648260D01*
X72505423Y-100965423D01*
X72424785Y-101086106D01*
X72398157Y-100952235D01*
X72257809Y-100742191D01*
X72047765Y-100601843D01*
X71800000Y-100552560D01*
X70200000Y-100552560D01*
X69952235Y-100601843D01*
X69742191Y-100742191D01*
X69601843Y-100952235D01*
X69552560Y-101200000D01*
X69552560Y-102800000D01*
X69601843Y-103047765D01*
X69742191Y-103257809D01*
X69952235Y-103398157D01*
X70200000Y-103447440D01*
X71800000Y-103447440D01*
X72047765Y-103398157D01*
X72257809Y-103257809D01*
X72398157Y-103047765D01*
X72424785Y-102913894D01*
X72505423Y-103034577D01*
X72980091Y-103351740D01*
X73398667Y-103435000D01*
X73681333Y-103435000D01*
X74099909Y-103351740D01*
X74574577Y-103034577D01*
X74760786Y-102755896D01*
X74847667Y-102738614D01*
X75045423Y-103034577D01*
X75075694Y-103054803D01*
X73055530Y-105074969D01*
X72992071Y-105117371D01*
X72824096Y-105368764D01*
X72780000Y-105590449D01*
X72780000Y-105590453D01*
X72765112Y-105665300D01*
X72780000Y-105740147D01*
X72780001Y-107161956D01*
X72505423Y-107345423D01*
X72270000Y-107697758D01*
X72034577Y-107345423D01*
X71559909Y-107028260D01*
X71141333Y-106945000D01*
X70858667Y-106945000D01*
X70440091Y-107028260D01*
X69965423Y-107345423D01*
X69648260Y-107820091D01*
X69536887Y-108380000D01*
X69648260Y-108939909D01*
X69965423Y-109414577D01*
X70440091Y-109731740D01*
X70858667Y-109815000D01*
X71141333Y-109815000D01*
X71559909Y-109731740D01*
X72034577Y-109414577D01*
X72270000Y-109062242D01*
X72505423Y-109414577D01*
X72980091Y-109731740D01*
X73398667Y-109815000D01*
X73681333Y-109815000D01*
X74099909Y-109731740D01*
X74574577Y-109414577D01*
X74810000Y-109062242D01*
X75045423Y-109414577D01*
X75520091Y-109731740D01*
X75938667Y-109815000D01*
X76221333Y-109815000D01*
X76639909Y-109731740D01*
X77114577Y-109414577D01*
X77350000Y-109062242D01*
X77585423Y-109414577D01*
X78060091Y-109731740D01*
X78478667Y-109815000D01*
X78761333Y-109815000D01*
X79179909Y-109731740D01*
X79654577Y-109414577D01*
X79840786Y-109135896D01*
X79927667Y-109118614D01*
X80125423Y-109414577D01*
X80600091Y-109731740D01*
X81018667Y-109815000D01*
X81301333Y-109815000D01*
X81719909Y-109731740D01*
X82194577Y-109414577D01*
X82378043Y-109140000D01*
X82481957Y-109140000D01*
X82665423Y-109414577D01*
X83140091Y-109731740D01*
X83558667Y-109815000D01*
X83841333Y-109815000D01*
X84259909Y-109731740D01*
X84734577Y-109414577D01*
X84970000Y-109062242D01*
X85205423Y-109414577D01*
X85680091Y-109731740D01*
X86098667Y-109815000D01*
X86381333Y-109815000D01*
X86799909Y-109731740D01*
X87274577Y-109414577D01*
X87591740Y-108939909D01*
X87703113Y-108380000D01*
X87591740Y-107820091D01*
X87274577Y-107345423D01*
X87244305Y-107325196D01*
X103314697Y-91254804D01*
X103618815Y-91558922D01*
X103645560Y-91570000D01*
X103618815Y-91581078D01*
X103201078Y-91998815D01*
X102975000Y-92544615D01*
X102975000Y-93135385D01*
X103201078Y-93681185D01*
X103618815Y-94098922D01*
X103645560Y-94110000D01*
X103618815Y-94121078D01*
X103201078Y-94538815D01*
X103167450Y-94620000D01*
X102798746Y-94620000D01*
X102723899Y-94605112D01*
X102649052Y-94620000D01*
X102649048Y-94620000D01*
X102427363Y-94664096D01*
X102427361Y-94664097D01*
X102427362Y-94664097D01*
X102239426Y-94789671D01*
X102239424Y-94789673D01*
X102175971Y-94832071D01*
X102133573Y-94895524D01*
X82116108Y-114912991D01*
X81719909Y-114648260D01*
X81301333Y-114565000D01*
X81018667Y-114565000D01*
X80600091Y-114648260D01*
X80125423Y-114965423D01*
X79890000Y-115317758D01*
X79654577Y-114965423D01*
X79179909Y-114648260D01*
X78761333Y-114565000D01*
X78478667Y-114565000D01*
X78060091Y-114648260D01*
X77585423Y-114965423D01*
X77350000Y-115317758D01*
X77114577Y-114965423D01*
X76639909Y-114648260D01*
X76221333Y-114565000D01*
X75938667Y-114565000D01*
X75520091Y-114648260D01*
X75045423Y-114965423D01*
X74810000Y-115317758D01*
X74574577Y-114965423D01*
X74099909Y-114648260D01*
X73681333Y-114565000D01*
X73398667Y-114565000D01*
X72980091Y-114648260D01*
X72505423Y-114965423D01*
X72424785Y-115086106D01*
X72398157Y-114952235D01*
X72257809Y-114742191D01*
X72047765Y-114601843D01*
X71800000Y-114552560D01*
X70200000Y-114552560D01*
X69952235Y-114601843D01*
X69742191Y-114742191D01*
X69601843Y-114952235D01*
X69552560Y-115200000D01*
X69552560Y-116800000D01*
X69601843Y-117047765D01*
X69742191Y-117257809D01*
X69952235Y-117398157D01*
X70200000Y-117447440D01*
X71800000Y-117447440D01*
X72047765Y-117398157D01*
X72257809Y-117257809D01*
X72398157Y-117047765D01*
X72424785Y-116913894D01*
X72505423Y-117034577D01*
X72980091Y-117351740D01*
X73398667Y-117435000D01*
X73681333Y-117435000D01*
X74099909Y-117351740D01*
X74574577Y-117034577D01*
X74810000Y-116682242D01*
X75045423Y-117034577D01*
X75520091Y-117351740D01*
X75938667Y-117435000D01*
X76221333Y-117435000D01*
X76639909Y-117351740D01*
X77114577Y-117034577D01*
X77350000Y-116682242D01*
X77585423Y-117034577D01*
X78060091Y-117351740D01*
X78478667Y-117435000D01*
X78761333Y-117435000D01*
X79179909Y-117351740D01*
X79654577Y-117034577D01*
X79890000Y-116682242D01*
X80125423Y-117034577D01*
X80600091Y-117351740D01*
X81018667Y-117435000D01*
X81301333Y-117435000D01*
X81719909Y-117351740D01*
X82194577Y-117034577D01*
X82380786Y-116755896D01*
X82467667Y-116738614D01*
X82665423Y-117034577D01*
X83140091Y-117351740D01*
X83558667Y-117435000D01*
X83841333Y-117435000D01*
X84259909Y-117351740D01*
X84734577Y-117034577D01*
X84990947Y-116650892D01*
X85087611Y-116855134D01*
X85502577Y-117231041D01*
X85890961Y-117391904D01*
X86113000Y-117269915D01*
X86113000Y-116127000D01*
X86367000Y-116127000D01*
X86367000Y-117269915D01*
X86589039Y-117391904D01*
X86977423Y-117231041D01*
X87392389Y-116855134D01*
X87631914Y-116349041D01*
X87605364Y-116300434D01*
X102109876Y-116300434D01*
X102140856Y-116428355D01*
X102454078Y-116986317D01*
X102712991Y-117190000D01*
X102454078Y-117393683D01*
X102140856Y-117951645D01*
X102109876Y-118079566D01*
X102229223Y-118333000D01*
X103873000Y-118333000D01*
X103873000Y-116047000D01*
X104127000Y-116047000D01*
X104127000Y-118333000D01*
X105770777Y-118333000D01*
X105890124Y-118079566D01*
X105859144Y-117951645D01*
X105545922Y-117393683D01*
X105287009Y-117190000D01*
X105545922Y-116986317D01*
X105859144Y-116428355D01*
X105890124Y-116300434D01*
X105770777Y-116047000D01*
X104127000Y-116047000D01*
X103873000Y-116047000D01*
X102229223Y-116047000D01*
X102109876Y-116300434D01*
X87605364Y-116300434D01*
X87510629Y-116127000D01*
X86367000Y-116127000D01*
X86113000Y-116127000D01*
X86093000Y-116127000D01*
X86093000Y-115873000D01*
X86113000Y-115873000D01*
X86113000Y-114730085D01*
X86367000Y-114730085D01*
X86367000Y-115873000D01*
X87510629Y-115873000D01*
X87631914Y-115650959D01*
X87392389Y-115144866D01*
X86977423Y-114768959D01*
X86589039Y-114608096D01*
X86367000Y-114730085D01*
X86113000Y-114730085D01*
X85890961Y-114608096D01*
X85502577Y-114768959D01*
X85087611Y-115144866D01*
X84990947Y-115349108D01*
X84734577Y-114965423D01*
X84422081Y-114756620D01*
X85798701Y-113380000D01*
X102032969Y-113380000D01*
X102159864Y-114017945D01*
X102521231Y-114558769D01*
X102687629Y-114669952D01*
X102454078Y-114853683D01*
X102140856Y-115411645D01*
X102109876Y-115539566D01*
X102229223Y-115793000D01*
X103873000Y-115793000D01*
X103873000Y-115773000D01*
X104127000Y-115773000D01*
X104127000Y-115793000D01*
X105770777Y-115793000D01*
X105890124Y-115539566D01*
X105859144Y-115411645D01*
X105545922Y-114853683D01*
X105312371Y-114669952D01*
X105478769Y-114558769D01*
X105840136Y-114017945D01*
X105967031Y-113380000D01*
X105840136Y-112742055D01*
X105478769Y-112201231D01*
X104937945Y-111839864D01*
X104461031Y-111745000D01*
X103538969Y-111745000D01*
X103062055Y-111839864D01*
X102521231Y-112201231D01*
X102159864Y-112742055D01*
X102032969Y-113380000D01*
X85798701Y-113380000D01*
X103038703Y-96140000D01*
X103167450Y-96140000D01*
X103201078Y-96221185D01*
X103618815Y-96638922D01*
X103645560Y-96650000D01*
X103618815Y-96661078D01*
X103201078Y-97078815D01*
X102975000Y-97624615D01*
X102975000Y-98215385D01*
X103201078Y-98761185D01*
X103618815Y-99178922D01*
X103645560Y-99190000D01*
X103618815Y-99201078D01*
X103201078Y-99618815D01*
X102975000Y-100164615D01*
X102975000Y-100755385D01*
X103201078Y-101301185D01*
X103618815Y-101718922D01*
X103645560Y-101730000D01*
X103618815Y-101741078D01*
X103201078Y-102158815D01*
X102975000Y-102704615D01*
X102975000Y-103295385D01*
X103201078Y-103841185D01*
X103618815Y-104258922D01*
X104164615Y-104485000D01*
X104755385Y-104485000D01*
X105301185Y-104258922D01*
X105535150Y-104024957D01*
X105611673Y-104209698D01*
X105790301Y-104388327D01*
X106023690Y-104485000D01*
X106714250Y-104485000D01*
X106873000Y-104326250D01*
X106873000Y-103127000D01*
X107127000Y-103127000D01*
X107127000Y-104326250D01*
X107285750Y-104485000D01*
X107976310Y-104485000D01*
X108209699Y-104388327D01*
X108388327Y-104209698D01*
X108485000Y-103976309D01*
X108485000Y-103285750D01*
X108326250Y-103127000D01*
X107127000Y-103127000D01*
X106873000Y-103127000D01*
X106853000Y-103127000D01*
X106853000Y-102873000D01*
X106873000Y-102873000D01*
X106873000Y-102853000D01*
X107127000Y-102853000D01*
X107127000Y-102873000D01*
X108326250Y-102873000D01*
X108485000Y-102714250D01*
X108485000Y-102023691D01*
X108388327Y-101790302D01*
X108209699Y-101611673D01*
X107976310Y-101515000D01*
X107860826Y-101515000D01*
X107864353Y-101503958D01*
X107000000Y-100639605D01*
X106135647Y-101503958D01*
X106139174Y-101515000D01*
X106023690Y-101515000D01*
X105790301Y-101611673D01*
X105611673Y-101790302D01*
X105535150Y-101975043D01*
X105301185Y-101741078D01*
X105274440Y-101730000D01*
X105301185Y-101718922D01*
X105718922Y-101301185D01*
X105738155Y-101254753D01*
X105956042Y-101324353D01*
X106820395Y-100460000D01*
X107179605Y-100460000D01*
X108043958Y-101324353D01*
X108295259Y-101244080D01*
X108496718Y-100688721D01*
X108470315Y-100098542D01*
X108295259Y-99675920D01*
X108043958Y-99595647D01*
X107179605Y-100460000D01*
X106820395Y-100460000D01*
X105956042Y-99595647D01*
X105738155Y-99665247D01*
X105718922Y-99618815D01*
X105301185Y-99201078D01*
X105274440Y-99190000D01*
X105301185Y-99178922D01*
X105516149Y-98963958D01*
X106135647Y-98963958D01*
X106207852Y-99190000D01*
X106135647Y-99416042D01*
X107000000Y-100280395D01*
X107864353Y-99416042D01*
X107792148Y-99190000D01*
X107864353Y-98963958D01*
X107000000Y-98099605D01*
X106135647Y-98963958D01*
X105516149Y-98963958D01*
X105718922Y-98761185D01*
X105738155Y-98714753D01*
X105956042Y-98784353D01*
X106820395Y-97920000D01*
X107179605Y-97920000D01*
X108043958Y-98784353D01*
X108295259Y-98704080D01*
X108496718Y-98148721D01*
X108470315Y-97558542D01*
X108295259Y-97135920D01*
X108043958Y-97055647D01*
X107179605Y-97920000D01*
X106820395Y-97920000D01*
X105956042Y-97055647D01*
X105738155Y-97125247D01*
X105718922Y-97078815D01*
X105301185Y-96661078D01*
X105274440Y-96650000D01*
X105301185Y-96638922D01*
X105516149Y-96423958D01*
X106135647Y-96423958D01*
X106207852Y-96650000D01*
X106135647Y-96876042D01*
X107000000Y-97740395D01*
X107864353Y-96876042D01*
X107792148Y-96650000D01*
X107864353Y-96423958D01*
X107000000Y-95559605D01*
X106135647Y-96423958D01*
X105516149Y-96423958D01*
X105718922Y-96221185D01*
X105738155Y-96174753D01*
X105956042Y-96244353D01*
X106820395Y-95380000D01*
X107179605Y-95380000D01*
X108043958Y-96244353D01*
X108295259Y-96164080D01*
X108496718Y-95608721D01*
X108470315Y-95018542D01*
X108295259Y-94595920D01*
X108043958Y-94515647D01*
X107179605Y-95380000D01*
X106820395Y-95380000D01*
X105956042Y-94515647D01*
X105738155Y-94585247D01*
X105718922Y-94538815D01*
X105301185Y-94121078D01*
X105274440Y-94110000D01*
X105301185Y-94098922D01*
X105516149Y-93883958D01*
X106135647Y-93883958D01*
X106207852Y-94110000D01*
X106135647Y-94336042D01*
X107000000Y-95200395D01*
X107864353Y-94336042D01*
X107792148Y-94110000D01*
X107864353Y-93883958D01*
X107000000Y-93019605D01*
X106135647Y-93883958D01*
X105516149Y-93883958D01*
X105718922Y-93681185D01*
X105738155Y-93634753D01*
X105956042Y-93704353D01*
X106820395Y-92840000D01*
X107179605Y-92840000D01*
X108043958Y-93704353D01*
X108295259Y-93624080D01*
X108496718Y-93068721D01*
X108470315Y-92478542D01*
X108295259Y-92055920D01*
X108043958Y-91975647D01*
X107179605Y-92840000D01*
X106820395Y-92840000D01*
X105956042Y-91975647D01*
X105738155Y-92045247D01*
X105718922Y-91998815D01*
X105301185Y-91581078D01*
X105274440Y-91570000D01*
X105301185Y-91558922D01*
X105516149Y-91343958D01*
X106135647Y-91343958D01*
X106207852Y-91570000D01*
X106135647Y-91796042D01*
X107000000Y-92660395D01*
X107864353Y-91796042D01*
X107792148Y-91570000D01*
X107864353Y-91343958D01*
X107000000Y-90479605D01*
X106135647Y-91343958D01*
X105516149Y-91343958D01*
X105718922Y-91141185D01*
X105738155Y-91094753D01*
X105956042Y-91164353D01*
X106820395Y-90300000D01*
X107179605Y-90300000D01*
X108043958Y-91164353D01*
X108295259Y-91084080D01*
X108496718Y-90528721D01*
X108470315Y-89938542D01*
X108295259Y-89515920D01*
X108043958Y-89435647D01*
X107179605Y-90300000D01*
X106820395Y-90300000D01*
X105956042Y-89435647D01*
X105738155Y-89505247D01*
X105718922Y-89458815D01*
X105301185Y-89041078D01*
X105274440Y-89030000D01*
X105301185Y-89018922D01*
X105516149Y-88803958D01*
X106135647Y-88803958D01*
X106207852Y-89030000D01*
X106135647Y-89256042D01*
X107000000Y-90120395D01*
X107864353Y-89256042D01*
X107792148Y-89030000D01*
X107864353Y-88803958D01*
X107000000Y-87939605D01*
X106135647Y-88803958D01*
X105516149Y-88803958D01*
X105718922Y-88601185D01*
X105738155Y-88554753D01*
X105956042Y-88624353D01*
X106820395Y-87760000D01*
X107179605Y-87760000D01*
X108043958Y-88624353D01*
X108295259Y-88544080D01*
X108496718Y-87988721D01*
X108470315Y-87398542D01*
X108295259Y-86975920D01*
X108043958Y-86895647D01*
X107179605Y-87760000D01*
X106820395Y-87760000D01*
X105956042Y-86895647D01*
X105738155Y-86965247D01*
X105718922Y-86918815D01*
X105301185Y-86501078D01*
X105274440Y-86490000D01*
X105301185Y-86478922D01*
X105516149Y-86263958D01*
X106135647Y-86263958D01*
X106207852Y-86490000D01*
X106135647Y-86716042D01*
X107000000Y-87580395D01*
X107864353Y-86716042D01*
X107792148Y-86490000D01*
X107864353Y-86263958D01*
X107000000Y-85399605D01*
X106135647Y-86263958D01*
X105516149Y-86263958D01*
X105718922Y-86061185D01*
X105738155Y-86014753D01*
X105956042Y-86084353D01*
X106820395Y-85220000D01*
X106806253Y-85205858D01*
X106985858Y-85026253D01*
X107000000Y-85040395D01*
X107014143Y-85026253D01*
X107193748Y-85205858D01*
X107179605Y-85220000D01*
X108043958Y-86084353D01*
X108295259Y-86004080D01*
X108496718Y-85448721D01*
X108470315Y-84858542D01*
X108295259Y-84435920D01*
X108074192Y-84365305D01*
X108081031Y-84355070D01*
X108716473Y-83719629D01*
X108779929Y-83677229D01*
X108947904Y-83425837D01*
X108992000Y-83204152D01*
X108992000Y-83204148D01*
X109006888Y-83129300D01*
X108992000Y-83054452D01*
X108992000Y-74704346D01*
X109006888Y-74629499D01*
X108992000Y-74554652D01*
X108992000Y-74554648D01*
X108947904Y-74332963D01*
X108779929Y-74081571D01*
X108716473Y-74039171D01*
X108057370Y-73380069D01*
X108295259Y-73304080D01*
X108496718Y-72748721D01*
X108470315Y-72158542D01*
X108295259Y-71735920D01*
X108043958Y-71655647D01*
X107179605Y-72520000D01*
X107193748Y-72534143D01*
X107014143Y-72713748D01*
X107000000Y-72699605D01*
X106985858Y-72713748D01*
X106806253Y-72534143D01*
X106820395Y-72520000D01*
X106806253Y-72505858D01*
X106985858Y-72326253D01*
X107000000Y-72340395D01*
X107864353Y-71476042D01*
X107792148Y-71250000D01*
X107864353Y-71023958D01*
X107000000Y-70159605D01*
X106135647Y-71023958D01*
X106207852Y-71250000D01*
X106151818Y-71425416D01*
X106119873Y-71404071D01*
X105627954Y-70912153D01*
X105718922Y-70821185D01*
X105738155Y-70774753D01*
X105956042Y-70844353D01*
X106820395Y-69980000D01*
X107179605Y-69980000D01*
X108043958Y-70844353D01*
X108295259Y-70764080D01*
X108496718Y-70208721D01*
X108470315Y-69618542D01*
X108295259Y-69195920D01*
X108043958Y-69115647D01*
X107179605Y-69980000D01*
X106820395Y-69980000D01*
X105956042Y-69115647D01*
X105738155Y-69185247D01*
X105718922Y-69138815D01*
X105301185Y-68721078D01*
X105274440Y-68710000D01*
X105301185Y-68698922D01*
X105516149Y-68483958D01*
X106135647Y-68483958D01*
X106207852Y-68710000D01*
X106135647Y-68936042D01*
X107000000Y-69800395D01*
X107864353Y-68936042D01*
X107792148Y-68710000D01*
X107864353Y-68483958D01*
X107000000Y-67619605D01*
X106135647Y-68483958D01*
X105516149Y-68483958D01*
X105718922Y-68281185D01*
X105738155Y-68234753D01*
X105956042Y-68304353D01*
X106820395Y-67440000D01*
X107179605Y-67440000D01*
X108043958Y-68304353D01*
X108295259Y-68224080D01*
X108496718Y-67668721D01*
X108470315Y-67078542D01*
X108295259Y-66655920D01*
X108043958Y-66575647D01*
X107179605Y-67440000D01*
X106820395Y-67440000D01*
X105956042Y-66575647D01*
X105738155Y-66645247D01*
X105718922Y-66598815D01*
X105301185Y-66181078D01*
X105274440Y-66170000D01*
X105301185Y-66158922D01*
X105516149Y-65943958D01*
X106135647Y-65943958D01*
X106207852Y-66170000D01*
X106135647Y-66396042D01*
X107000000Y-67260395D01*
X107864353Y-66396042D01*
X107792148Y-66170000D01*
X107864353Y-65943958D01*
X107000000Y-65079605D01*
X106135647Y-65943958D01*
X105516149Y-65943958D01*
X105718922Y-65741185D01*
X105738155Y-65694753D01*
X105956042Y-65764353D01*
X106820395Y-64900000D01*
X107179605Y-64900000D01*
X108043958Y-65764353D01*
X108295259Y-65684080D01*
X108496718Y-65128721D01*
X108470315Y-64538542D01*
X108295259Y-64115920D01*
X108043958Y-64035647D01*
X107179605Y-64900000D01*
X106820395Y-64900000D01*
X105956042Y-64035647D01*
X105738155Y-64105247D01*
X105718922Y-64058815D01*
X105301185Y-63641078D01*
X105274440Y-63630000D01*
X105301185Y-63618922D01*
X105516149Y-63403958D01*
X106135647Y-63403958D01*
X106207852Y-63630000D01*
X106135647Y-63856042D01*
X107000000Y-64720395D01*
X107864353Y-63856042D01*
X107792148Y-63630000D01*
X107864353Y-63403958D01*
X107000000Y-62539605D01*
X106135647Y-63403958D01*
X105516149Y-63403958D01*
X105718922Y-63201185D01*
X105738155Y-63154753D01*
X105956042Y-63224353D01*
X106820395Y-62360000D01*
X107179605Y-62360000D01*
X108043958Y-63224353D01*
X108295259Y-63144080D01*
X108496718Y-62588721D01*
X108470315Y-61998542D01*
X108295259Y-61575920D01*
X108043958Y-61495647D01*
X107179605Y-62360000D01*
X106820395Y-62360000D01*
X105956042Y-61495647D01*
X105738155Y-61565247D01*
X105718922Y-61518815D01*
X105516149Y-61316042D01*
X106135647Y-61316042D01*
X107000000Y-62180395D01*
X107864353Y-61316042D01*
X107784080Y-61064741D01*
X107228721Y-60863282D01*
X106638542Y-60889685D01*
X106215920Y-61064741D01*
X106135647Y-61316042D01*
X105516149Y-61316042D01*
X105301185Y-61101078D01*
X104755385Y-60875000D01*
X104164615Y-60875000D01*
X103618815Y-61101078D01*
X103201078Y-61518815D01*
X103167450Y-61600000D01*
X97167202Y-61600000D01*
X91345770Y-55778569D01*
X91478839Y-55579418D01*
X91594092Y-55000000D01*
X91478839Y-54420582D01*
X91150625Y-53929375D01*
X90659418Y-53601161D01*
X90226256Y-53515000D01*
X89933744Y-53515000D01*
X89500582Y-53601161D01*
X89009375Y-53929375D01*
X88810000Y-54227761D01*
X88610625Y-53929375D01*
X88119418Y-53601161D01*
X87686256Y-53515000D01*
X87393744Y-53515000D01*
X86960582Y-53601161D01*
X86469375Y-53929375D01*
X86457184Y-53947619D01*
X86448157Y-53902235D01*
X86307809Y-53692191D01*
X86097765Y-53551843D01*
X85850000Y-53502560D01*
X84150000Y-53502560D01*
X83902235Y-53551843D01*
X83692191Y-53692191D01*
X83551843Y-53902235D01*
X83502560Y-54150000D01*
X83502560Y-55850000D01*
X83551843Y-56097765D01*
X83692191Y-56307809D01*
X83902235Y-56448157D01*
X84150000Y-56497440D01*
X85850000Y-56497440D01*
X86097765Y-56448157D01*
X86307809Y-56307809D01*
X86448157Y-56097765D01*
X86457184Y-56052381D01*
X86469375Y-56070625D01*
X86960582Y-56398839D01*
X87393744Y-56485000D01*
X87686256Y-56485000D01*
X88119418Y-56398839D01*
X88610625Y-56070625D01*
X88810000Y-55772239D01*
X88877155Y-55872743D01*
X84515528Y-60234371D01*
X84452072Y-60276771D01*
X84409672Y-60340227D01*
X84409671Y-60340228D01*
X84301204Y-60502560D01*
X84150000Y-60502560D01*
X83902235Y-60551843D01*
X83692191Y-60692191D01*
X83551843Y-60902235D01*
X83502560Y-61150000D01*
X83502560Y-62292358D01*
X80732431Y-59522230D01*
X80690029Y-59458771D01*
X80438637Y-59290796D01*
X80216952Y-59246700D01*
X80216947Y-59246700D01*
X80142100Y-59231812D01*
X80067253Y-59246700D01*
X62361746Y-59246700D01*
X62286899Y-59231812D01*
X62212052Y-59246700D01*
X62212048Y-59246700D01*
X61990363Y-59290796D01*
X61990361Y-59290797D01*
X61990362Y-59290797D01*
X61802426Y-59416371D01*
X61802424Y-59416373D01*
X61738971Y-59458771D01*
X61696573Y-59522224D01*
X58982630Y-62236169D01*
X58919171Y-62278571D01*
X58751196Y-62529964D01*
X58707100Y-62751649D01*
X58707100Y-62751653D01*
X58692212Y-62826500D01*
X55685000Y-62826500D01*
X55685000Y-53469501D01*
X56333000Y-53469501D01*
X56333000Y-54530499D01*
X56739026Y-55510734D01*
X57489266Y-56260974D01*
X58469501Y-56667000D01*
X59530499Y-56667000D01*
X60510734Y-56260974D01*
X61260974Y-55510734D01*
X61667000Y-54530499D01*
X61667000Y-53469501D01*
X108333000Y-53469501D01*
X108333000Y-54530499D01*
X108739026Y-55510734D01*
X109489266Y-56260974D01*
X110469501Y-56667000D01*
X111530499Y-56667000D01*
X112510734Y-56260974D01*
X113260974Y-55510734D01*
X113667000Y-54530499D01*
X113667000Y-53469501D01*
X113260974Y-52489266D01*
X112510734Y-51739026D01*
X111530499Y-51333000D01*
X110469501Y-51333000D01*
X109489266Y-51739026D01*
X108739026Y-52489266D01*
X108333000Y-53469501D01*
X61667000Y-53469501D01*
X61260974Y-52489266D01*
X60510734Y-51739026D01*
X59530499Y-51333000D01*
X58469501Y-51333000D01*
X57489266Y-51739026D01*
X56739026Y-52489266D01*
X56333000Y-53469501D01*
X55685000Y-53469501D01*
X55685000Y-50685000D01*
X114315001Y-50685000D01*
X114315000Y-129315000D01*
X114315000Y-129315000D01*
G37*
X114315000Y-129315000D02*
X55685000Y-129315000D01*
X55685000Y-125469501D01*
X56333000Y-125469501D01*
X56333000Y-126530499D01*
X56739026Y-127510734D01*
X57489266Y-128260974D01*
X58469501Y-128667000D01*
X59530499Y-128667000D01*
X60510734Y-128260974D01*
X61260974Y-127510734D01*
X61667000Y-126530499D01*
X61667000Y-125469501D01*
X108333000Y-125469501D01*
X108333000Y-126530499D01*
X108739026Y-127510734D01*
X109489266Y-128260974D01*
X110469501Y-128667000D01*
X111530499Y-128667000D01*
X112510734Y-128260974D01*
X113260974Y-127510734D01*
X113667000Y-126530499D01*
X113667000Y-125469501D01*
X113260974Y-124489266D01*
X112510734Y-123739026D01*
X111530499Y-123333000D01*
X110469501Y-123333000D01*
X109489266Y-123739026D01*
X108739026Y-124489266D01*
X108333000Y-125469501D01*
X61667000Y-125469501D01*
X61260974Y-124489266D01*
X60510734Y-123739026D01*
X59530499Y-123333000D01*
X58469501Y-123333000D01*
X57489266Y-123739026D01*
X56739026Y-124489266D01*
X56333000Y-125469501D01*
X55685000Y-125469501D01*
X55685000Y-97000714D01*
X59935000Y-97000714D01*
X59935000Y-120999285D01*
X66305000Y-120999285D01*
X66305000Y-120000000D01*
X102052560Y-120000000D01*
X102052560Y-122000000D01*
X102101843Y-122247765D01*
X102242191Y-122457809D01*
X102452235Y-122598157D01*
X102700000Y-122647440D01*
X105300000Y-122647440D01*
X105547765Y-122598157D01*
X105757809Y-122457809D01*
X105898157Y-122247765D01*
X105947440Y-122000000D01*
X105947440Y-120000000D01*
X105898157Y-119752235D01*
X105757809Y-119542191D01*
X105597240Y-119434901D01*
X105859144Y-118968355D01*
X105890124Y-118840434D01*
X105770777Y-118587000D01*
X104127000Y-118587000D01*
X104127000Y-118607000D01*
X103873000Y-118607000D01*
X103873000Y-118587000D01*
X102229223Y-118587000D01*
X102109876Y-118840434D01*
X102140856Y-118968355D01*
X102402760Y-119434901D01*
X102242191Y-119542191D01*
X102101843Y-119752235D01*
X102052560Y-120000000D01*
X66305000Y-120000000D01*
X66305000Y-97000714D01*
X59935000Y-97000714D01*
X55685000Y-97000714D01*
X55685000Y-94380000D01*
X69536887Y-94380000D01*
X69648260Y-94939909D01*
X69965423Y-95414577D01*
X70440091Y-95731740D01*
X70858667Y-95815000D01*
X71141333Y-95815000D01*
X71559909Y-95731740D01*
X72034577Y-95414577D01*
X72290947Y-95030892D01*
X72387611Y-95235134D01*
X72802577Y-95611041D01*
X73190961Y-95771904D01*
X73413000Y-95649915D01*
X73413000Y-94507000D01*
X73667000Y-94507000D01*
X73667000Y-95649915D01*
X73889039Y-95771904D01*
X74277423Y-95611041D01*
X74692389Y-95235134D01*
X74810000Y-94986633D01*
X74927611Y-95235134D01*
X75342577Y-95611041D01*
X75730961Y-95771904D01*
X75953000Y-95649915D01*
X75953000Y-94507000D01*
X76207000Y-94507000D01*
X76207000Y-95649915D01*
X76429039Y-95771904D01*
X76817423Y-95611041D01*
X77232389Y-95235134D01*
X77350000Y-94986633D01*
X77467611Y-95235134D01*
X77882577Y-95611041D01*
X78270961Y-95771904D01*
X78493000Y-95649915D01*
X78493000Y-94507000D01*
X78747000Y-94507000D01*
X78747000Y-95649915D01*
X78969039Y-95771904D01*
X79357423Y-95611041D01*
X79772389Y-95235134D01*
X79890000Y-94986633D01*
X80007611Y-95235134D01*
X80422577Y-95611041D01*
X80810961Y-95771904D01*
X81033000Y-95649915D01*
X81033000Y-94507000D01*
X78747000Y-94507000D01*
X78493000Y-94507000D01*
X76207000Y-94507000D01*
X75953000Y-94507000D01*
X73667000Y-94507000D01*
X73413000Y-94507000D01*
X73393000Y-94507000D01*
X73393000Y-94253000D01*
X73413000Y-94253000D01*
X73413000Y-93110085D01*
X73667000Y-93110085D01*
X73667000Y-94253000D01*
X75953000Y-94253000D01*
X75953000Y-93110085D01*
X76207000Y-93110085D01*
X76207000Y-94253000D01*
X78493000Y-94253000D01*
X78493000Y-93110085D01*
X78747000Y-93110085D01*
X78747000Y-94253000D01*
X81033000Y-94253000D01*
X81033000Y-93110085D01*
X81287000Y-93110085D01*
X81287000Y-94253000D01*
X81307000Y-94253000D01*
X81307000Y-94507000D01*
X81287000Y-94507000D01*
X81287000Y-95649915D01*
X81509039Y-95771904D01*
X81897423Y-95611041D01*
X82312389Y-95235134D01*
X82409053Y-95030892D01*
X82665423Y-95414577D01*
X83140091Y-95731740D01*
X83558667Y-95815000D01*
X83841333Y-95815000D01*
X84259909Y-95731740D01*
X84734577Y-95414577D01*
X84970000Y-95062242D01*
X85205423Y-95414577D01*
X85680091Y-95731740D01*
X86098667Y-95815000D01*
X86381333Y-95815000D01*
X86799909Y-95731740D01*
X87274577Y-95414577D01*
X87591740Y-94939909D01*
X87703113Y-94380000D01*
X87591740Y-93820091D01*
X87274577Y-93345423D01*
X86799909Y-93028260D01*
X86381333Y-92945000D01*
X86098667Y-92945000D01*
X85680091Y-93028260D01*
X85205423Y-93345423D01*
X84970000Y-93697758D01*
X84734577Y-93345423D01*
X84259909Y-93028260D01*
X83841333Y-92945000D01*
X83558667Y-92945000D01*
X83140091Y-93028260D01*
X82665423Y-93345423D01*
X82409053Y-93729108D01*
X82312389Y-93524866D01*
X81897423Y-93148959D01*
X81509039Y-92988096D01*
X81287000Y-93110085D01*
X81033000Y-93110085D01*
X80810961Y-92988096D01*
X80422577Y-93148959D01*
X80007611Y-93524866D01*
X79890000Y-93773367D01*
X79772389Y-93524866D01*
X79357423Y-93148959D01*
X78969039Y-92988096D01*
X78747000Y-93110085D01*
X78493000Y-93110085D01*
X78270961Y-92988096D01*
X77882577Y-93148959D01*
X77467611Y-93524866D01*
X77350000Y-93773367D01*
X77232389Y-93524866D01*
X76817423Y-93148959D01*
X76429039Y-92988096D01*
X76207000Y-93110085D01*
X75953000Y-93110085D01*
X75730961Y-92988096D01*
X75342577Y-93148959D01*
X74927611Y-93524866D01*
X74810000Y-93773367D01*
X74692389Y-93524866D01*
X74277423Y-93148959D01*
X73889039Y-92988096D01*
X73667000Y-93110085D01*
X73413000Y-93110085D01*
X73190961Y-92988096D01*
X72802577Y-93148959D01*
X72387611Y-93524866D01*
X72290947Y-93729108D01*
X72034577Y-93345423D01*
X71559909Y-93028260D01*
X71141333Y-92945000D01*
X70858667Y-92945000D01*
X70440091Y-93028260D01*
X69965423Y-93345423D01*
X69648260Y-93820091D01*
X69536887Y-94380000D01*
X55685000Y-94380000D01*
X55685000Y-62826500D01*
X58692212Y-62826500D01*
X58707100Y-62901347D01*
X58707101Y-81932248D01*
X58692212Y-82007100D01*
X58751197Y-82303637D01*
X58868438Y-82479100D01*
X58919172Y-82555029D01*
X58982628Y-82597429D01*
X61008628Y-84623430D01*
X60975000Y-84704615D01*
X60975000Y-85295385D01*
X61201078Y-85841185D01*
X61618815Y-86258922D01*
X62164615Y-86485000D01*
X62755385Y-86485000D01*
X63301185Y-86258922D01*
X63536994Y-86023113D01*
X63551843Y-86097765D01*
X63692191Y-86307809D01*
X63902235Y-86448157D01*
X64150000Y-86497440D01*
X65850000Y-86497440D01*
X66097765Y-86448157D01*
X66307809Y-86307809D01*
X66448157Y-86097765D01*
X66497440Y-85850000D01*
X66497440Y-85760000D01*
X83857899Y-85760000D01*
X84600459Y-86502560D01*
X84150000Y-86502560D01*
X83902235Y-86551843D01*
X83692191Y-86692191D01*
X83551843Y-86902235D01*
X83502560Y-87150000D01*
X83502560Y-88850000D01*
X83551843Y-89097765D01*
X83692191Y-89307809D01*
X83902235Y-89448157D01*
X84150000Y-89497440D01*
X85850000Y-89497440D01*
X86097765Y-89448157D01*
X86307809Y-89307809D01*
X86448157Y-89097765D01*
X86457184Y-89052381D01*
X86469375Y-89070625D01*
X86960582Y-89398839D01*
X87393744Y-89485000D01*
X87686256Y-89485000D01*
X88119418Y-89398839D01*
X88610625Y-89070625D01*
X88810000Y-88772239D01*
X89009375Y-89070625D01*
X89320001Y-89278179D01*
X89320000Y-99526398D01*
X87491699Y-101354699D01*
X87392389Y-101144866D01*
X86977423Y-100768959D01*
X86589039Y-100608096D01*
X86367000Y-100730085D01*
X86367000Y-101873000D01*
X86387000Y-101873000D01*
X86387000Y-102127000D01*
X86367000Y-102127000D01*
X86367000Y-102147000D01*
X86113000Y-102147000D01*
X86113000Y-102127000D01*
X86093000Y-102127000D01*
X86093000Y-101873000D01*
X86113000Y-101873000D01*
X86113000Y-100730085D01*
X85890961Y-100608096D01*
X85532578Y-100756533D01*
X85601031Y-100688080D01*
X85758600Y-100307674D01*
X85758600Y-99895926D01*
X85601031Y-99515520D01*
X85309880Y-99224369D01*
X84929474Y-99066800D01*
X84517726Y-99066800D01*
X84137320Y-99224369D01*
X84019889Y-99341800D01*
X76357047Y-99341800D01*
X76282200Y-99326912D01*
X76207353Y-99341800D01*
X76207348Y-99341800D01*
X75985663Y-99385896D01*
X75734271Y-99553871D01*
X75691871Y-99617327D01*
X74436222Y-100872977D01*
X74099909Y-100648260D01*
X73681333Y-100565000D01*
X73398667Y-100565000D01*
X72980091Y-100648260D01*
X72505423Y-100965423D01*
X72424785Y-101086106D01*
X72398157Y-100952235D01*
X72257809Y-100742191D01*
X72047765Y-100601843D01*
X71800000Y-100552560D01*
X70200000Y-100552560D01*
X69952235Y-100601843D01*
X69742191Y-100742191D01*
X69601843Y-100952235D01*
X69552560Y-101200000D01*
X69552560Y-102800000D01*
X69601843Y-103047765D01*
X69742191Y-103257809D01*
X69952235Y-103398157D01*
X70200000Y-103447440D01*
X71800000Y-103447440D01*
X72047765Y-103398157D01*
X72257809Y-103257809D01*
X72398157Y-103047765D01*
X72424785Y-102913894D01*
X72505423Y-103034577D01*
X72980091Y-103351740D01*
X73398667Y-103435000D01*
X73681333Y-103435000D01*
X74099909Y-103351740D01*
X74574577Y-103034577D01*
X74760786Y-102755896D01*
X74847667Y-102738614D01*
X75045423Y-103034577D01*
X75075694Y-103054803D01*
X73055530Y-105074969D01*
X72992071Y-105117371D01*
X72824096Y-105368764D01*
X72780000Y-105590449D01*
X72780000Y-105590453D01*
X72765112Y-105665300D01*
X72780000Y-105740147D01*
X72780001Y-107161956D01*
X72505423Y-107345423D01*
X72270000Y-107697758D01*
X72034577Y-107345423D01*
X71559909Y-107028260D01*
X71141333Y-106945000D01*
X70858667Y-106945000D01*
X70440091Y-107028260D01*
X69965423Y-107345423D01*
X69648260Y-107820091D01*
X69536887Y-108380000D01*
X69648260Y-108939909D01*
X69965423Y-109414577D01*
X70440091Y-109731740D01*
X70858667Y-109815000D01*
X71141333Y-109815000D01*
X71559909Y-109731740D01*
X72034577Y-109414577D01*
X72270000Y-109062242D01*
X72505423Y-109414577D01*
X72980091Y-109731740D01*
X73398667Y-109815000D01*
X73681333Y-109815000D01*
X74099909Y-109731740D01*
X74574577Y-109414577D01*
X74810000Y-109062242D01*
X75045423Y-109414577D01*
X75520091Y-109731740D01*
X75938667Y-109815000D01*
X76221333Y-109815000D01*
X76639909Y-109731740D01*
X77114577Y-109414577D01*
X77350000Y-109062242D01*
X77585423Y-109414577D01*
X78060091Y-109731740D01*
X78478667Y-109815000D01*
X78761333Y-109815000D01*
X79179909Y-109731740D01*
X79654577Y-109414577D01*
X79840786Y-109135896D01*
X79927667Y-109118614D01*
X80125423Y-109414577D01*
X80600091Y-109731740D01*
X81018667Y-109815000D01*
X81301333Y-109815000D01*
X81719909Y-109731740D01*
X82194577Y-109414577D01*
X82378043Y-109140000D01*
X82481957Y-109140000D01*
X82665423Y-109414577D01*
X83140091Y-109731740D01*
X83558667Y-109815000D01*
X83841333Y-109815000D01*
X84259909Y-109731740D01*
X84734577Y-109414577D01*
X84970000Y-109062242D01*
X85205423Y-109414577D01*
X85680091Y-109731740D01*
X86098667Y-109815000D01*
X86381333Y-109815000D01*
X86799909Y-109731740D01*
X87274577Y-109414577D01*
X87591740Y-108939909D01*
X87703113Y-108380000D01*
X87591740Y-107820091D01*
X87274577Y-107345423D01*
X87244305Y-107325196D01*
X103314697Y-91254804D01*
X103618815Y-91558922D01*
X103645560Y-91570000D01*
X103618815Y-91581078D01*
X103201078Y-91998815D01*
X102975000Y-92544615D01*
X102975000Y-93135385D01*
X103201078Y-93681185D01*
X103618815Y-94098922D01*
X103645560Y-94110000D01*
X103618815Y-94121078D01*
X103201078Y-94538815D01*
X103167450Y-94620000D01*
X102798746Y-94620000D01*
X102723899Y-94605112D01*
X102649052Y-94620000D01*
X102649048Y-94620000D01*
X102427363Y-94664096D01*
X102427361Y-94664097D01*
X102427362Y-94664097D01*
X102239426Y-94789671D01*
X102239424Y-94789673D01*
X102175971Y-94832071D01*
X102133573Y-94895524D01*
X82116108Y-114912991D01*
X81719909Y-114648260D01*
X81301333Y-114565000D01*
X81018667Y-114565000D01*
X80600091Y-114648260D01*
X80125423Y-114965423D01*
X79890000Y-115317758D01*
X79654577Y-114965423D01*
X79179909Y-114648260D01*
X78761333Y-114565000D01*
X78478667Y-114565000D01*
X78060091Y-114648260D01*
X77585423Y-114965423D01*
X77350000Y-115317758D01*
X77114577Y-114965423D01*
X76639909Y-114648260D01*
X76221333Y-114565000D01*
X75938667Y-114565000D01*
X75520091Y-114648260D01*
X75045423Y-114965423D01*
X74810000Y-115317758D01*
X74574577Y-114965423D01*
X74099909Y-114648260D01*
X73681333Y-114565000D01*
X73398667Y-114565000D01*
X72980091Y-114648260D01*
X72505423Y-114965423D01*
X72424785Y-115086106D01*
X72398157Y-114952235D01*
X72257809Y-114742191D01*
X72047765Y-114601843D01*
X71800000Y-114552560D01*
X70200000Y-114552560D01*
X69952235Y-114601843D01*
X69742191Y-114742191D01*
X69601843Y-114952235D01*
X69552560Y-115200000D01*
X69552560Y-116800000D01*
X69601843Y-117047765D01*
X69742191Y-117257809D01*
X69952235Y-117398157D01*
X70200000Y-117447440D01*
X71800000Y-117447440D01*
X72047765Y-117398157D01*
X72257809Y-117257809D01*
X72398157Y-117047765D01*
X72424785Y-116913894D01*
X72505423Y-117034577D01*
X72980091Y-117351740D01*
X73398667Y-117435000D01*
X73681333Y-117435000D01*
X74099909Y-117351740D01*
X74574577Y-117034577D01*
X74810000Y-116682242D01*
X75045423Y-117034577D01*
X75520091Y-117351740D01*
X75938667Y-117435000D01*
X76221333Y-117435000D01*
X76639909Y-117351740D01*
X77114577Y-117034577D01*
X77350000Y-116682242D01*
X77585423Y-117034577D01*
X78060091Y-117351740D01*
X78478667Y-117435000D01*
X78761333Y-117435000D01*
X79179909Y-117351740D01*
X79654577Y-117034577D01*
X79890000Y-116682242D01*
X80125423Y-117034577D01*
X80600091Y-117351740D01*
X81018667Y-117435000D01*
X81301333Y-117435000D01*
X81719909Y-117351740D01*
X82194577Y-117034577D01*
X82380786Y-116755896D01*
X82467667Y-116738614D01*
X82665423Y-117034577D01*
X83140091Y-117351740D01*
X83558667Y-117435000D01*
X83841333Y-117435000D01*
X84259909Y-117351740D01*
X84734577Y-117034577D01*
X84990947Y-116650892D01*
X85087611Y-116855134D01*
X85502577Y-117231041D01*
X85890961Y-117391904D01*
X86113000Y-117269915D01*
X86113000Y-116127000D01*
X86367000Y-116127000D01*
X86367000Y-117269915D01*
X86589039Y-117391904D01*
X86977423Y-117231041D01*
X87392389Y-116855134D01*
X87631914Y-116349041D01*
X87605364Y-116300434D01*
X102109876Y-116300434D01*
X102140856Y-116428355D01*
X102454078Y-116986317D01*
X102712991Y-117190000D01*
X102454078Y-117393683D01*
X102140856Y-117951645D01*
X102109876Y-118079566D01*
X102229223Y-118333000D01*
X103873000Y-118333000D01*
X103873000Y-116047000D01*
X104127000Y-116047000D01*
X104127000Y-118333000D01*
X105770777Y-118333000D01*
X105890124Y-118079566D01*
X105859144Y-117951645D01*
X105545922Y-117393683D01*
X105287009Y-117190000D01*
X105545922Y-116986317D01*
X105859144Y-116428355D01*
X105890124Y-116300434D01*
X105770777Y-116047000D01*
X104127000Y-116047000D01*
X103873000Y-116047000D01*
X102229223Y-116047000D01*
X102109876Y-116300434D01*
X87605364Y-116300434D01*
X87510629Y-116127000D01*
X86367000Y-116127000D01*
X86113000Y-116127000D01*
X86093000Y-116127000D01*
X86093000Y-115873000D01*
X86113000Y-115873000D01*
X86113000Y-114730085D01*
X86367000Y-114730085D01*
X86367000Y-115873000D01*
X87510629Y-115873000D01*
X87631914Y-115650959D01*
X87392389Y-115144866D01*
X86977423Y-114768959D01*
X86589039Y-114608096D01*
X86367000Y-114730085D01*
X86113000Y-114730085D01*
X85890961Y-114608096D01*
X85502577Y-114768959D01*
X85087611Y-115144866D01*
X84990947Y-115349108D01*
X84734577Y-114965423D01*
X84422081Y-114756620D01*
X85798701Y-113380000D01*
X102032969Y-113380000D01*
X102159864Y-114017945D01*
X102521231Y-114558769D01*
X102687629Y-114669952D01*
X102454078Y-114853683D01*
X102140856Y-115411645D01*
X102109876Y-115539566D01*
X102229223Y-115793000D01*
X103873000Y-115793000D01*
X103873000Y-115773000D01*
X104127000Y-115773000D01*
X104127000Y-115793000D01*
X105770777Y-115793000D01*
X105890124Y-115539566D01*
X105859144Y-115411645D01*
X105545922Y-114853683D01*
X105312371Y-114669952D01*
X105478769Y-114558769D01*
X105840136Y-114017945D01*
X105967031Y-113380000D01*
X105840136Y-112742055D01*
X105478769Y-112201231D01*
X104937945Y-111839864D01*
X104461031Y-111745000D01*
X103538969Y-111745000D01*
X103062055Y-111839864D01*
X102521231Y-112201231D01*
X102159864Y-112742055D01*
X102032969Y-113380000D01*
X85798701Y-113380000D01*
X103038703Y-96140000D01*
X103167450Y-96140000D01*
X103201078Y-96221185D01*
X103618815Y-96638922D01*
X103645560Y-96650000D01*
X103618815Y-96661078D01*
X103201078Y-97078815D01*
X102975000Y-97624615D01*
X102975000Y-98215385D01*
X103201078Y-98761185D01*
X103618815Y-99178922D01*
X103645560Y-99190000D01*
X103618815Y-99201078D01*
X103201078Y-99618815D01*
X102975000Y-100164615D01*
X102975000Y-100755385D01*
X103201078Y-101301185D01*
X103618815Y-101718922D01*
X103645560Y-101730000D01*
X103618815Y-101741078D01*
X103201078Y-102158815D01*
X102975000Y-102704615D01*
X102975000Y-103295385D01*
X103201078Y-103841185D01*
X103618815Y-104258922D01*
X104164615Y-104485000D01*
X104755385Y-104485000D01*
X105301185Y-104258922D01*
X105535150Y-104024957D01*
X105611673Y-104209698D01*
X105790301Y-104388327D01*
X106023690Y-104485000D01*
X106714250Y-104485000D01*
X106873000Y-104326250D01*
X106873000Y-103127000D01*
X107127000Y-103127000D01*
X107127000Y-104326250D01*
X107285750Y-104485000D01*
X107976310Y-104485000D01*
X108209699Y-104388327D01*
X108388327Y-104209698D01*
X108485000Y-103976309D01*
X108485000Y-103285750D01*
X108326250Y-103127000D01*
X107127000Y-103127000D01*
X106873000Y-103127000D01*
X106853000Y-103127000D01*
X106853000Y-102873000D01*
X106873000Y-102873000D01*
X106873000Y-102853000D01*
X107127000Y-102853000D01*
X107127000Y-102873000D01*
X108326250Y-102873000D01*
X108485000Y-102714250D01*
X108485000Y-102023691D01*
X108388327Y-101790302D01*
X108209699Y-101611673D01*
X107976310Y-101515000D01*
X107860826Y-101515000D01*
X107864353Y-101503958D01*
X107000000Y-100639605D01*
X106135647Y-101503958D01*
X106139174Y-101515000D01*
X106023690Y-101515000D01*
X105790301Y-101611673D01*
X105611673Y-101790302D01*
X105535150Y-101975043D01*
X105301185Y-101741078D01*
X105274440Y-101730000D01*
X105301185Y-101718922D01*
X105718922Y-101301185D01*
X105738155Y-101254753D01*
X105956042Y-101324353D01*
X106820395Y-100460000D01*
X107179605Y-100460000D01*
X108043958Y-101324353D01*
X108295259Y-101244080D01*
X108496718Y-100688721D01*
X108470315Y-100098542D01*
X108295259Y-99675920D01*
X108043958Y-99595647D01*
X107179605Y-100460000D01*
X106820395Y-100460000D01*
X105956042Y-99595647D01*
X105738155Y-99665247D01*
X105718922Y-99618815D01*
X105301185Y-99201078D01*
X105274440Y-99190000D01*
X105301185Y-99178922D01*
X105516149Y-98963958D01*
X106135647Y-98963958D01*
X106207852Y-99190000D01*
X106135647Y-99416042D01*
X107000000Y-100280395D01*
X107864353Y-99416042D01*
X107792148Y-99190000D01*
X107864353Y-98963958D01*
X107000000Y-98099605D01*
X106135647Y-98963958D01*
X105516149Y-98963958D01*
X105718922Y-98761185D01*
X105738155Y-98714753D01*
X105956042Y-98784353D01*
X106820395Y-97920000D01*
X107179605Y-97920000D01*
X108043958Y-98784353D01*
X108295259Y-98704080D01*
X108496718Y-98148721D01*
X108470315Y-97558542D01*
X108295259Y-97135920D01*
X108043958Y-97055647D01*
X107179605Y-97920000D01*
X106820395Y-97920000D01*
X105956042Y-97055647D01*
X105738155Y-97125247D01*
X105718922Y-97078815D01*
X105301185Y-96661078D01*
X105274440Y-96650000D01*
X105301185Y-96638922D01*
X105516149Y-96423958D01*
X106135647Y-96423958D01*
X106207852Y-96650000D01*
X106135647Y-96876042D01*
X107000000Y-97740395D01*
X107864353Y-96876042D01*
X107792148Y-96650000D01*
X107864353Y-96423958D01*
X107000000Y-95559605D01*
X106135647Y-96423958D01*
X105516149Y-96423958D01*
X105718922Y-96221185D01*
X105738155Y-96174753D01*
X105956042Y-96244353D01*
X106820395Y-95380000D01*
X107179605Y-95380000D01*
X108043958Y-96244353D01*
X108295259Y-96164080D01*
X108496718Y-95608721D01*
X108470315Y-95018542D01*
X108295259Y-94595920D01*
X108043958Y-94515647D01*
X107179605Y-95380000D01*
X106820395Y-95380000D01*
X105956042Y-94515647D01*
X105738155Y-94585247D01*
X105718922Y-94538815D01*
X105301185Y-94121078D01*
X105274440Y-94110000D01*
X105301185Y-94098922D01*
X105516149Y-93883958D01*
X106135647Y-93883958D01*
X106207852Y-94110000D01*
X106135647Y-94336042D01*
X107000000Y-95200395D01*
X107864353Y-94336042D01*
X107792148Y-94110000D01*
X107864353Y-93883958D01*
X107000000Y-93019605D01*
X106135647Y-93883958D01*
X105516149Y-93883958D01*
X105718922Y-93681185D01*
X105738155Y-93634753D01*
X105956042Y-93704353D01*
X106820395Y-92840000D01*
X107179605Y-92840000D01*
X108043958Y-93704353D01*
X108295259Y-93624080D01*
X108496718Y-93068721D01*
X108470315Y-92478542D01*
X108295259Y-92055920D01*
X108043958Y-91975647D01*
X107179605Y-92840000D01*
X106820395Y-92840000D01*
X105956042Y-91975647D01*
X105738155Y-92045247D01*
X105718922Y-91998815D01*
X105301185Y-91581078D01*
X105274440Y-91570000D01*
X105301185Y-91558922D01*
X105516149Y-91343958D01*
X106135647Y-91343958D01*
X106207852Y-91570000D01*
X106135647Y-91796042D01*
X107000000Y-92660395D01*
X107864353Y-91796042D01*
X107792148Y-91570000D01*
X107864353Y-91343958D01*
X107000000Y-90479605D01*
X106135647Y-91343958D01*
X105516149Y-91343958D01*
X105718922Y-91141185D01*
X105738155Y-91094753D01*
X105956042Y-91164353D01*
X106820395Y-90300000D01*
X107179605Y-90300000D01*
X108043958Y-91164353D01*
X108295259Y-91084080D01*
X108496718Y-90528721D01*
X108470315Y-89938542D01*
X108295259Y-89515920D01*
X108043958Y-89435647D01*
X107179605Y-90300000D01*
X106820395Y-90300000D01*
X105956042Y-89435647D01*
X105738155Y-89505247D01*
X105718922Y-89458815D01*
X105301185Y-89041078D01*
X105274440Y-89030000D01*
X105301185Y-89018922D01*
X105516149Y-88803958D01*
X106135647Y-88803958D01*
X106207852Y-89030000D01*
X106135647Y-89256042D01*
X107000000Y-90120395D01*
X107864353Y-89256042D01*
X107792148Y-89030000D01*
X107864353Y-88803958D01*
X107000000Y-87939605D01*
X106135647Y-88803958D01*
X105516149Y-88803958D01*
X105718922Y-88601185D01*
X105738155Y-88554753D01*
X105956042Y-88624353D01*
X106820395Y-87760000D01*
X107179605Y-87760000D01*
X108043958Y-88624353D01*
X108295259Y-88544080D01*
X108496718Y-87988721D01*
X108470315Y-87398542D01*
X108295259Y-86975920D01*
X108043958Y-86895647D01*
X107179605Y-87760000D01*
X106820395Y-87760000D01*
X105956042Y-86895647D01*
X105738155Y-86965247D01*
X105718922Y-86918815D01*
X105301185Y-86501078D01*
X105274440Y-86490000D01*
X105301185Y-86478922D01*
X105516149Y-86263958D01*
X106135647Y-86263958D01*
X106207852Y-86490000D01*
X106135647Y-86716042D01*
X107000000Y-87580395D01*
X107864353Y-86716042D01*
X107792148Y-86490000D01*
X107864353Y-86263958D01*
X107000000Y-85399605D01*
X106135647Y-86263958D01*
X105516149Y-86263958D01*
X105718922Y-86061185D01*
X105738155Y-86014753D01*
X105956042Y-86084353D01*
X106820395Y-85220000D01*
X106806253Y-85205858D01*
X106985858Y-85026253D01*
X107000000Y-85040395D01*
X107014143Y-85026253D01*
X107193748Y-85205858D01*
X107179605Y-85220000D01*
X108043958Y-86084353D01*
X108295259Y-86004080D01*
X108496718Y-85448721D01*
X108470315Y-84858542D01*
X108295259Y-84435920D01*
X108074192Y-84365305D01*
X108081031Y-84355070D01*
X108716473Y-83719629D01*
X108779929Y-83677229D01*
X108947904Y-83425837D01*
X108992000Y-83204152D01*
X108992000Y-83204148D01*
X109006888Y-83129300D01*
X108992000Y-83054452D01*
X108992000Y-74704346D01*
X109006888Y-74629499D01*
X108992000Y-74554652D01*
X108992000Y-74554648D01*
X108947904Y-74332963D01*
X108779929Y-74081571D01*
X108716473Y-74039171D01*
X108057370Y-73380069D01*
X108295259Y-73304080D01*
X108496718Y-72748721D01*
X108470315Y-72158542D01*
X108295259Y-71735920D01*
X108043958Y-71655647D01*
X107179605Y-72520000D01*
X107193748Y-72534143D01*
X107014143Y-72713748D01*
X107000000Y-72699605D01*
X106985858Y-72713748D01*
X106806253Y-72534143D01*
X106820395Y-72520000D01*
X106806253Y-72505858D01*
X106985858Y-72326253D01*
X107000000Y-72340395D01*
X107864353Y-71476042D01*
X107792148Y-71250000D01*
X107864353Y-71023958D01*
X107000000Y-70159605D01*
X106135647Y-71023958D01*
X106207852Y-71250000D01*
X106151818Y-71425416D01*
X106119873Y-71404071D01*
X105627954Y-70912153D01*
X105718922Y-70821185D01*
X105738155Y-70774753D01*
X105956042Y-70844353D01*
X106820395Y-69980000D01*
X107179605Y-69980000D01*
X108043958Y-70844353D01*
X108295259Y-70764080D01*
X108496718Y-70208721D01*
X108470315Y-69618542D01*
X108295259Y-69195920D01*
X108043958Y-69115647D01*
X107179605Y-69980000D01*
X106820395Y-69980000D01*
X105956042Y-69115647D01*
X105738155Y-69185247D01*
X105718922Y-69138815D01*
X105301185Y-68721078D01*
X105274440Y-68710000D01*
X105301185Y-68698922D01*
X105516149Y-68483958D01*
X106135647Y-68483958D01*
X106207852Y-68710000D01*
X106135647Y-68936042D01*
X107000000Y-69800395D01*
X107864353Y-68936042D01*
X107792148Y-68710000D01*
X107864353Y-68483958D01*
X107000000Y-67619605D01*
X106135647Y-68483958D01*
X105516149Y-68483958D01*
X105718922Y-68281185D01*
X105738155Y-68234753D01*
X105956042Y-68304353D01*
X106820395Y-67440000D01*
X107179605Y-67440000D01*
X108043958Y-68304353D01*
X108295259Y-68224080D01*
X108496718Y-67668721D01*
X108470315Y-67078542D01*
X108295259Y-66655920D01*
X108043958Y-66575647D01*
X107179605Y-67440000D01*
X106820395Y-67440000D01*
X105956042Y-66575647D01*
X105738155Y-66645247D01*
X105718922Y-66598815D01*
X105301185Y-66181078D01*
X105274440Y-66170000D01*
X105301185Y-66158922D01*
X105516149Y-65943958D01*
X106135647Y-65943958D01*
X106207852Y-66170000D01*
X106135647Y-66396042D01*
X107000000Y-67260395D01*
X107864353Y-66396042D01*
X107792148Y-66170000D01*
X107864353Y-65943958D01*
X107000000Y-65079605D01*
X106135647Y-65943958D01*
X105516149Y-65943958D01*
X105718922Y-65741185D01*
X105738155Y-65694753D01*
X105956042Y-65764353D01*
X106820395Y-64900000D01*
X107179605Y-64900000D01*
X108043958Y-65764353D01*
X108295259Y-65684080D01*
X108496718Y-65128721D01*
X108470315Y-64538542D01*
X108295259Y-64115920D01*
X108043958Y-64035647D01*
X107179605Y-64900000D01*
X106820395Y-64900000D01*
X105956042Y-64035647D01*
X105738155Y-64105247D01*
X105718922Y-64058815D01*
X105301185Y-63641078D01*
X105274440Y-63630000D01*
X105301185Y-63618922D01*
X105516149Y-63403958D01*
X106135647Y-63403958D01*
X106207852Y-63630000D01*
X106135647Y-63856042D01*
X107000000Y-64720395D01*
X107864353Y-63856042D01*
X107792148Y-63630000D01*
X107864353Y-63403958D01*
X107000000Y-62539605D01*
X106135647Y-63403958D01*
X105516149Y-63403958D01*
X105718922Y-63201185D01*
X105738155Y-63154753D01*
X105956042Y-63224353D01*
X106820395Y-62360000D01*
X107179605Y-62360000D01*
X108043958Y-63224353D01*
X108295259Y-63144080D01*
X108496718Y-62588721D01*
X108470315Y-61998542D01*
X108295259Y-61575920D01*
X108043958Y-61495647D01*
X107179605Y-62360000D01*
X106820395Y-62360000D01*
X105956042Y-61495647D01*
X105738155Y-61565247D01*
X105718922Y-61518815D01*
X105516149Y-61316042D01*
X106135647Y-61316042D01*
X107000000Y-62180395D01*
X107864353Y-61316042D01*
X107784080Y-61064741D01*
X107228721Y-60863282D01*
X106638542Y-60889685D01*
X106215920Y-61064741D01*
X106135647Y-61316042D01*
X105516149Y-61316042D01*
X105301185Y-61101078D01*
X104755385Y-60875000D01*
X104164615Y-60875000D01*
X103618815Y-61101078D01*
X103201078Y-61518815D01*
X103167450Y-61600000D01*
X97167202Y-61600000D01*
X91345770Y-55778569D01*
X91478839Y-55579418D01*
X91594092Y-55000000D01*
X91478839Y-54420582D01*
X91150625Y-53929375D01*
X90659418Y-53601161D01*
X90226256Y-53515000D01*
X89933744Y-53515000D01*
X89500582Y-53601161D01*
X89009375Y-53929375D01*
X88810000Y-54227761D01*
X88610625Y-53929375D01*
X88119418Y-53601161D01*
X87686256Y-53515000D01*
X87393744Y-53515000D01*
X86960582Y-53601161D01*
X86469375Y-53929375D01*
X86457184Y-53947619D01*
X86448157Y-53902235D01*
X86307809Y-53692191D01*
X86097765Y-53551843D01*
X85850000Y-53502560D01*
X84150000Y-53502560D01*
X83902235Y-53551843D01*
X83692191Y-53692191D01*
X83551843Y-53902235D01*
X83502560Y-54150000D01*
X83502560Y-55850000D01*
X83551843Y-56097765D01*
X83692191Y-56307809D01*
X83902235Y-56448157D01*
X84150000Y-56497440D01*
X85850000Y-56497440D01*
X86097765Y-56448157D01*
X86307809Y-56307809D01*
X86448157Y-56097765D01*
X86457184Y-56052381D01*
X86469375Y-56070625D01*
X86960582Y-56398839D01*
X87393744Y-56485000D01*
X87686256Y-56485000D01*
X88119418Y-56398839D01*
X88610625Y-56070625D01*
X88810000Y-55772239D01*
X88877155Y-55872743D01*
X84515528Y-60234371D01*
X84452072Y-60276771D01*
X84409672Y-60340227D01*
X84409671Y-60340228D01*
X84301204Y-60502560D01*
X84150000Y-60502560D01*
X83902235Y-60551843D01*
X83692191Y-60692191D01*
X83551843Y-60902235D01*
X83502560Y-61150000D01*
X83502560Y-62292358D01*
X80732431Y-59522230D01*
X80690029Y-59458771D01*
X80438637Y-59290796D01*
X80216952Y-59246700D01*
X80216947Y-59246700D01*
X80142100Y-59231812D01*
X80067253Y-59246700D01*
X62361746Y-59246700D01*
X62286899Y-59231812D01*
X62212052Y-59246700D01*
X62212048Y-59246700D01*
X61990363Y-59290796D01*
X61990361Y-59290797D01*
X61990362Y-59290797D01*
X61802426Y-59416371D01*
X61802424Y-59416373D01*
X61738971Y-59458771D01*
X61696573Y-59522224D01*
X58982630Y-62236169D01*
X58919171Y-62278571D01*
X58751196Y-62529964D01*
X58707100Y-62751649D01*
X58707100Y-62751653D01*
X58692212Y-62826500D01*
X55685000Y-62826500D01*
X55685000Y-53469501D01*
X56333000Y-53469501D01*
X56333000Y-54530499D01*
X56739026Y-55510734D01*
X57489266Y-56260974D01*
X58469501Y-56667000D01*
X59530499Y-56667000D01*
X60510734Y-56260974D01*
X61260974Y-55510734D01*
X61667000Y-54530499D01*
X61667000Y-53469501D01*
X108333000Y-53469501D01*
X108333000Y-54530499D01*
X108739026Y-55510734D01*
X109489266Y-56260974D01*
X110469501Y-56667000D01*
X111530499Y-56667000D01*
X112510734Y-56260974D01*
X113260974Y-55510734D01*
X113667000Y-54530499D01*
X113667000Y-53469501D01*
X113260974Y-52489266D01*
X112510734Y-51739026D01*
X111530499Y-51333000D01*
X110469501Y-51333000D01*
X109489266Y-51739026D01*
X108739026Y-52489266D01*
X108333000Y-53469501D01*
X61667000Y-53469501D01*
X61260974Y-52489266D01*
X60510734Y-51739026D01*
X59530499Y-51333000D01*
X58469501Y-51333000D01*
X57489266Y-51739026D01*
X56739026Y-52489266D01*
X56333000Y-53469501D01*
X55685000Y-53469501D01*
X55685000Y-50685000D01*
X114315001Y-50685000D01*
X114315000Y-129315000D01*
G36*
X106207852Y-81410000D02*
X106135647Y-81636042D01*
X107000000Y-82500395D01*
X107014143Y-82486253D01*
X107193748Y-82665858D01*
X107179605Y-82680000D01*
X107193748Y-82694143D01*
X107014143Y-82873748D01*
X107000000Y-82859605D01*
X106985858Y-82873748D01*
X106806253Y-82694143D01*
X106820395Y-82680000D01*
X105956042Y-81815647D01*
X105738155Y-81885247D01*
X105718922Y-81838815D01*
X105609904Y-81729797D01*
X106119873Y-81219829D01*
X106142315Y-81204833D01*
X106207852Y-81410000D01*
X106207852Y-81410000D01*
G37*
X106207852Y-81410000D02*
X106135647Y-81636042D01*
X107000000Y-82500395D01*
X107014143Y-82486253D01*
X107193748Y-82665858D01*
X107179605Y-82680000D01*
X107193748Y-82694143D01*
X107014143Y-82873748D01*
X107000000Y-82859605D01*
X106985858Y-82873748D01*
X106806253Y-82694143D01*
X106820395Y-82680000D01*
X105956042Y-81815647D01*
X105738155Y-81885247D01*
X105718922Y-81838815D01*
X105609904Y-81729797D01*
X106119873Y-81219829D01*
X106142315Y-81204833D01*
X106207852Y-81410000D01*
G36*
X107193748Y-80125858D02*
X107179605Y-80140000D01*
X107193748Y-80154143D01*
X107014143Y-80333748D01*
X107000000Y-80319605D01*
X106985858Y-80333748D01*
X106806253Y-80154143D01*
X106820395Y-80140000D01*
X106806253Y-80125858D01*
X106985858Y-79946253D01*
X107000000Y-79960395D01*
X107014143Y-79946253D01*
X107193748Y-80125858D01*
X107193748Y-80125858D01*
G37*
X107193748Y-80125858D02*
X107179605Y-80140000D01*
X107193748Y-80154143D01*
X107014143Y-80333748D01*
X107000000Y-80319605D01*
X106985858Y-80333748D01*
X106806253Y-80154143D01*
X106820395Y-80140000D01*
X106806253Y-80125858D01*
X106985858Y-79946253D01*
X107000000Y-79960395D01*
X107014143Y-79946253D01*
X107193748Y-80125858D01*
G36*
X65193748Y-79905858D02*
X65179605Y-79920000D01*
X65193748Y-79934143D01*
X65014143Y-80113748D01*
X65000000Y-80099605D01*
X64985858Y-80113748D01*
X64806253Y-79934143D01*
X64820395Y-79920000D01*
X64806253Y-79905858D01*
X64985858Y-79726253D01*
X65000000Y-79740395D01*
X65014143Y-79726253D01*
X65193748Y-79905858D01*
X65193748Y-79905858D01*
G37*
X65193748Y-79905858D02*
X65179605Y-79920000D01*
X65193748Y-79934143D01*
X65014143Y-80113748D01*
X65000000Y-80099605D01*
X64985858Y-80113748D01*
X64806253Y-79934143D01*
X64820395Y-79920000D01*
X64806253Y-79905858D01*
X64985858Y-79726253D01*
X65000000Y-79740395D01*
X65014143Y-79726253D01*
X65193748Y-79905858D01*
G36*
X107193748Y-77585858D02*
X107179605Y-77600000D01*
X107193748Y-77614143D01*
X107014143Y-77793748D01*
X107000000Y-77779605D01*
X106985858Y-77793748D01*
X106806253Y-77614143D01*
X106820395Y-77600000D01*
X106806253Y-77585858D01*
X106985858Y-77406253D01*
X107000000Y-77420395D01*
X107014143Y-77406253D01*
X107193748Y-77585858D01*
X107193748Y-77585858D01*
G37*
X107193748Y-77585858D02*
X107179605Y-77600000D01*
X107193748Y-77614143D01*
X107014143Y-77793748D01*
X107000000Y-77779605D01*
X106985858Y-77793748D01*
X106806253Y-77614143D01*
X106820395Y-77600000D01*
X106806253Y-77585858D01*
X106985858Y-77406253D01*
X107000000Y-77420395D01*
X107014143Y-77406253D01*
X107193748Y-77585858D01*
G36*
X65193748Y-77365858D02*
X65179605Y-77380000D01*
X65193748Y-77394143D01*
X65014143Y-77573748D01*
X65000000Y-77559605D01*
X64985858Y-77573748D01*
X64806253Y-77394143D01*
X64820395Y-77380000D01*
X64806253Y-77365858D01*
X64985858Y-77186253D01*
X65000000Y-77200395D01*
X65014143Y-77186253D01*
X65193748Y-77365858D01*
X65193748Y-77365858D01*
G37*
X65193748Y-77365858D02*
X65179605Y-77380000D01*
X65193748Y-77394143D01*
X65014143Y-77573748D01*
X65000000Y-77559605D01*
X64985858Y-77573748D01*
X64806253Y-77394143D01*
X64820395Y-77380000D01*
X64806253Y-77365858D01*
X64985858Y-77186253D01*
X65000000Y-77200395D01*
X65014143Y-77186253D01*
X65193748Y-77365858D01*
G36*
X107193748Y-75045858D02*
X107179605Y-75060000D01*
X107193748Y-75074143D01*
X107014143Y-75253748D01*
X107000000Y-75239605D01*
X106985858Y-75253748D01*
X106806253Y-75074143D01*
X106820395Y-75060000D01*
X106806253Y-75045858D01*
X106985858Y-74866253D01*
X107000000Y-74880395D01*
X107014143Y-74866253D01*
X107193748Y-75045858D01*
X107193748Y-75045858D01*
G37*
X107193748Y-75045858D02*
X107179605Y-75060000D01*
X107193748Y-75074143D01*
X107014143Y-75253748D01*
X107000000Y-75239605D01*
X106985858Y-75253748D01*
X106806253Y-75074143D01*
X106820395Y-75060000D01*
X106806253Y-75045858D01*
X106985858Y-74866253D01*
X107000000Y-74880395D01*
X107014143Y-74866253D01*
X107193748Y-75045858D01*
G36*
X65193748Y-74825858D02*
X65179605Y-74840000D01*
X65193748Y-74854143D01*
X65014143Y-75033748D01*
X65000000Y-75019605D01*
X64985858Y-75033748D01*
X64806253Y-74854143D01*
X64820395Y-74840000D01*
X64806253Y-74825858D01*
X64985858Y-74646253D01*
X65000000Y-74660395D01*
X65014143Y-74646253D01*
X65193748Y-74825858D01*
X65193748Y-74825858D01*
G37*
X65193748Y-74825858D02*
X65179605Y-74840000D01*
X65193748Y-74854143D01*
X65014143Y-75033748D01*
X65000000Y-75019605D01*
X64985858Y-75033748D01*
X64806253Y-74854143D01*
X64820395Y-74840000D01*
X64806253Y-74825858D01*
X64985858Y-74646253D01*
X65000000Y-74660395D01*
X65014143Y-74646253D01*
X65193748Y-74825858D01*
M02*
